<svg width="280" height="358" viewBox="0 0 280 358" fill="none" xmlns="http://www.w3.org/2000/svg">
<path d="M175.673 122.269C172.514 122.549 167.564 121.722 167.564 121.722C167.564 121.722 165.964 138.142 166.849 147.994C167.23 152.234 167.958 154.566 169.135 158.667C170.519 163.49 171.413 167.425 173.662 170.161C174.505 171.188 177.788 172.144 179.264 172.624C181.784 173.446 183.524 174.081 187.386 175.909C190.611 177.435 192.17 178.743 195.234 180.561C200.272 183.55 203.644 185.487 208.411 188.771C210.655 190.316 212.619 192.055 214.867 194.518C217.842 197.777 219.802 198.957 223.842 200.812C227.203 202.357 230.93 202.594 235.037 203.823C238.574 204.881 240.069 205.333 243.437 206.833C247.637 208.704 250.173 210.895 253.812 213.675C258.02 216.89 261.438 220.7 265.331 225.99C268.369 230.119 269.597 232.336 271.812 236.937C273.508 240.462 274.641 242.232 275.767 245.968C277.121 250.457 277.156 253.646 277.782 258.283C278.584 264.229 278.547 266.796 278.409 272.788C278.301 277.508 278.083 280.131 277.627 284.829C277.15 289.75 277.048 292.259 276.287 297.144C275.617 301.451 275.288 304.647 274.386 308.912C273.571 312.768 273.366 314.725 272.195 318.49C271.622 320.331 271.202 321.183 270.259 322.869C268.998 325.122 267.734 325.858 265.527 327.248C263.06 328.801 262.186 328.569 259.388 329.437C258.402 329.743 256.768 329.815 256.039 330.532C255.482 331.079 254.607 332.824 253.819 334.09C251.743 337.424 250.84 339.104 248.547 342.3C246.392 345.302 245.168 346.918 242.711 349.689C240.438 352.252 238.259 354.067 236.587 355.162C234.915 356.257 230.725 356.804 230.725 356.804C229.83 356.804 226.811 356.804 224.57 355.709C222.329 354.615 220.445 353.632 219.799 351.604C219.441 350.481 219.507 349.142 219.507 349.142L217.553 349.689C217.553 349.689 215.164 350.107 213.083 350.236C209.925 350.432 208.963 350.014 205.813 349.689C204.384 349.541 202.184 349.156 200.778 348.868C199.371 348.58 197.697 347.548 196.018 347.226C193.97 346.832 193.071 346.952 190.985 346.952L190.87 346.952C189.241 346.952 187.823 346.952 186.232 346.678C183.909 346.278 182.652 345.835 180.355 345.31C175.992 344.313 173.575 343.598 169.162 342.847C166.011 342.311 163.687 341.752 160.492 341.752C157.417 341.752 155.538 341.752 151.826 341.752C147.354 341.752 144.048 342.52 140.372 343.121C135.344 343.942 131.432 344.215 126.121 344.215C123.141 344.215 121.74 343.942 118.29 343.394C114.84 342.847 108.779 341.935 107.379 341.479C106.539 341.205 98.9844 339.563 97.0264 339.289C95.0684 339.016 92.1915 339.466 89.4816 339.837C85.9423 340.32 84.1757 340.931 81.3829 341.479C79.3039 341.886 77.7834 341.833 75.696 341.759L75.514 341.752C72.0072 341.629 69.9827 341.445 66.5639 340.658C63.5012 339.952 61.5259 339.289 59.2845 338.195C57.8233 337.481 53.3976 334.637 51.1511 332.448C50.5473 331.859 47.9702 329.711 47.7723 327.248C47.5743 324.785 47.4613 320.57 47.4593 320.133L47.3795 303.165C47.3538 297.692 46.9794 295.314 46.4805 290.303C46.0324 285.801 46.1946 283.566 45.5892 279.082C45.0547 275.124 44.6706 271.711 43.5797 267.862L43.5241 267.665C42.63 264.509 42.475 263.962 40.7522 261.02C39.0439 258.103 37.4281 256.126 34.8486 253.904C32.4536 251.842 31.259 250.905 28.3988 249.526C25.4476 248.102 23.7076 247.439 20.5578 246.515C17.7586 245.694 16.1557 245.268 14.1157 243.779C11.6226 241.959 10.4658 240.471 9.05583 237.758C8.11474 235.947 8.02789 234.825 7.63504 232.832C7.24219 230.839 7.18651 228.492 7.04254 225.716C6.87559 222.498 6.92221 220.97 6.44619 217.78C6.07758 215.31 5.862 213.373 5.2959 210.938C4.58976 207.901 3.65699 206.602 3.0249 203.549C2.52144 201.118 2.38318 199.725 2.15672 197.255C1.72711 192.569 1.55908 189.045 2.10013 185.213C2.33351 183.561 3.12885 182.766 4.60047 181.929C5.85743 181.215 7.05856 181.219 8.51003 181.108C9.96154 180.997 13.6101 182.092 15.7843 182.477C19.5394 183.141 20.5497 183.232 24.1793 184.392C27.2089 185.361 28.2993 185.792 31.1804 187.129C33.8777 188.381 34.9429 190.365 37.9059 190.687C38.7743 190.781 40.1421 190.687 40.1421 190.687C40.1421 190.687 44.8534 190.067 47.6818 189.045C52.9839 187.129 56.2296 186.175 58.845 185.213L65.5422 182.75C68.1576 181.789 70.5753 180.569 73.9127 179.466C77.4457 178.299 83.1256 177.003 83.1256 177.003C83.1256 177.003 83.5306 175.374 83.6757 175.088C84.2296 173.993 84.8186 173.548 86.1773 172.077C86.7971 171.406 88.1264 170.435 88.1264 170.435C88.1264 170.435 86.6153 170.789 85.6119 170.709C84.6819 170.635 84.0346 170.808 83.373 170.161C82.7833 169.585 82.5116 169.018 82.2459 168.246C81.9242 167.311 82.2369 166.33 81.674 165.509C81.674 165.509 80.7644 165.281 80.2737 164.962C79.4326 164.414 78.8132 163.983 78.0285 163.046C77.1242 161.966 76.3423 161.13 76.0563 159.762C75.9584 159.293 76.6115 158.941 76.6115 158.941C76.6115 158.941 76.8127 158.137 76.6038 157.299C76.44 156.642 75.7549 155.11 75.7549 155.11L74.6381 155.383C74.6381 155.383 72.2365 155.729 70.7234 155.11C69.8556 154.754 68.7602 153.741 68.7602 153.741C68.7602 153.741 68.9591 147.374 68.4318 143.342C68.0645 140.534 68.0984 138.944 67.2802 136.226C66.6546 134.148 65.5781 133.123 65.0195 131.027C64.4616 128.933 64.5382 127.618 63.8757 125.553C63.5229 124.454 62.7447 122.817 62.7447 122.817L64.4219 122.817C64.4219 122.817 63.3938 122.58 63.0217 122.269C62.5365 121.864 62.3935 121.488 62.1766 120.901C61.8047 119.895 61.888 118.959 61.883 117.891C61.8779 116.822 62.1522 115.701 62.1522 115.701L60.4737 115.428L60.4416 108.586C60.4416 108.586 59.0427 108.312 58.7618 108.038C58.481 107.765 58.2333 106.703 58.1925 105.849C58.0893 103.69 57.8986 102.811 57.8885 100.65C57.882 99.281 58.1346 93.534 58.1191 90.2499C58.1137 89.0939 57.6928 87.8808 56.7073 87.2396C55.8662 86.6922 54.6739 86.0062 54.1813 85.0502C52.9119 82.5872 53.876 79.5769 53.876 79.5769C53.876 79.5769 52.265 79.9558 51.3602 79.5769C50.5071 79.2197 50.0942 78.7457 49.6753 77.9349C48.9283 76.4891 50.2151 73.8299 50.2151 73.8299C50.2151 73.8299 49.1742 74.0082 48.5353 73.2824C46.8491 71.3667 46.9589 68.0827 47.1042 66.167C47.3042 63.5313 47.6427 61.7882 49.0288 59.3253C49.6619 58.2003 51.2547 57.136 51.2547 57.136C51.2547 57.136 50.4124 56.3293 48.721 53.3045C47.0296 50.2798 45.1757 47.1932 43.084 43.4526C40.9923 39.7119 38.5704 34.695 37.7202 32.232C36.9645 30.0426 36.2826 23.7483 36.2826 23.7483L40.4627 21.0117L41.8733 23.7483L52.7634 21.2852L52.739 16.0856L69.2326 16.3592L69.5366 21.559L73.7334 22.3799C73.7334 22.3799 73.9822 19.6708 74.5515 18.0012C75.1542 16.2332 75.4083 15.1127 77.0492 14.1698C78.4586 13.3599 80.9614 13.8962 80.9614 13.8962C80.9614 13.8962 80.8397 12.5448 80.9524 11.9804C81.2255 10.6121 82.1392 9.0757 84.0092 8.14907C85.4675 7.42647 87.9214 7.8754 87.9214 7.8754C87.9214 7.8754 88.4573 5.2392 89.5806 4.04402C90.6694 2.88546 92.2504 2.39242 93.7632 1.85481C95.7341 1.15441 96.7033 1.08871 98.7922 1.30744L98.9333 1.32218C100.971 1.53481 102.732 1.71862 104.112 3.22313C104.93 4.11412 104.965 6.23352 104.965 6.23352C104.965 6.23352 107.469 3.77049 109.704 3.49682C111.498 3.27722 115.283 3.29448 118.651 3.77049C122.509 4.31602 124.426 4.59004 128.164 5.68618C130.963 6.50719 135.113 7.98545 139.364 9.79122C143.672 11.621 146.716 13.3818 150.571 15.2646C153.933 16.9066 155.229 17.7749 158.14 19.917C161.176 22.1509 165.16 26.485 165.16 26.485C165.16 26.485 168.22 23.4747 169.618 23.4747C171.016 23.4747 173.531 23.4747 174.93 23.7484C175.369 23.8342 178.29 24.8431 179.691 25.664C181.093 26.485 183.061 28.9481 183.061 28.9481C183.061 28.9481 185.58 29.5087 186.981 30.3164C188.515 31.2009 189.401 31.8511 190.349 33.3268C190.977 34.3031 191.48 36.0635 191.48 36.0635C191.48 36.0635 193.276 36.5557 194.281 37.1582C195.273 37.7527 195.768 38.2107 196.526 39.0738C197.803 40.5264 198.351 41.5863 198.783 43.4526C199.17 45.1218 198.804 47.8313 198.804 47.8313C198.804 47.8313 201.351 49.9255 202.456 51.6626C203.68 53.5893 203.905 54.9299 204.438 57.136C205.244 60.4742 204.936 62.4678 205.038 65.8935C205.105 68.1371 205.446 70.5229 205.07 72.7352C204.731 74.7341 203.972 76.8403 203.972 76.8403C203.972 76.8403 206.34 78.7067 207.344 80.6716C208.478 82.8929 208.187 84.4871 208.212 86.966C208.238 89.5509 208.234 91.0837 207.404 93.5341C206.481 96.262 205.516 97.7243 203.52 99.8285C201.444 102.018 199.069 104.207 197.112 104.207C196.076 104.207 194.873 103.66 194.873 103.66C194.873 103.66 194.674 104.724 194.603 105.576C194.363 108.443 193.321 109.939 191.839 112.417C190.007 115.483 188.733 117.278 185.722 119.259C182.318 121.498 179.764 121.907 175.673 122.269Z" fill="#878EDC" stroke="black"/>
<path d="M199.084 47.8311C200.301 49.1994 202.691 51.9525 203.019 52.4834C203.864 53.8518 205.002 58.1538 205.012 60.1462C205.019 61.7882 205.274 71.3666 205.072 73.0087C204.803 75.198 203.138 77.9347 202.583 78.7557C201.712 80.0438 198.408 82.5871 197.852 83.1344C197.295 83.6818 192.842 87.7868 192.569 89.1552C191.804 92.9865 193.999 95.9969 194.285 97.3653C194.385 97.8453 195.148 102.565 194.599 104.754C194.14 106.305 193.059 110.173 192.392 111.049C191.559 112.143 189.62 115.975 188.507 117.069C187.394 118.164 184.885 119.532 182.932 120.353C180.979 121.175 176.297 121.996 175.672 121.996C174.274 121.996 169.523 122.087 167.285 121.722C165.044 120.81 161.848 119.886 161.125 119.532C160.004 118.985 157.362 116.955 156.918 116.522C156.075 115.701 156.162 114.333 155.787 113.785" stroke="black"/>
<path d="M175.05 49.1999C176.911 48.7438 181.699 48.3789 182.593 48.3789C183.711 48.3789 189.028 49.4736 192.109 50.8419C193.948 51.6585 199.96 56.0417 200.258 59.873C200.449 62.3298 201.135 68.0831 199.191 70.8198C197.247 73.5565 193.342 75.1985 190.561 78.2089C188.379 80.5704 185.002 85.0506 184.456 87.7873C183.91 90.524 186.469 99.8288 186.2 102.018C185.931 104.208 183.154 109.382 178.977 111.597C176.14 113.101 173.953 113.239 170.878 113.239C167.804 113.239 164.166 112.418 162.205 111.597C160.245 110.776 158.748 109.59 157.998 108.586" stroke="black"/>
<path d="M81.2402 13.8965C80.3084 13.8965 79.0027 13.6228 77.8858 13.8965C75.5634 14.4656 74.8315 18.2752 74.5559 19.0962C74.3353 19.753 74.0045 20.7382 74.0097 21.8329L74.0135 22.6539" stroke="black"/>
<path d="M88.2018 8.14938C87.3619 7.87548 86.0909 7.4819 84.8461 7.8758C83.1575 8.41016 81.7841 10.6126 81.5072 11.16C81.2856 11.5978 80.6802 13.0968 81.2405 13.8966C81.6013 14.4117 83.1958 14.3055 83.4793 14.444C84.0397 14.7176 84.8783 14.7177 85.4412 15.5387C85.8915 16.1955 86.193 16.907 86.2875 17.1807" stroke="black"/>
<path d="M132.403 313.018C129.801 314.66 126.49 316.494 123.488 319.586C120.575 322.587 118.211 326.701 117.38 328.343C116.715 329.657 115.628 332.357 115.168 333.543" stroke="black"/>
<path d="M4.87772 181.656C4.88158 182.477 4.89238 184.776 4.90473 187.403C4.92016 190.687 5.49466 193.971 6.90003 195.613C8.30541 197.255 15.3271 204.371 15.8913 205.466C16.4555 206.56 19.2779 212.307 18.7317 215.044C18.1855 217.781 17.9277 222.433 17.6546 223.801C17.3815 225.17 19.364 230.643 19.3653 230.917C19.3666 231.19 21.3477 236.39 21.081 239.127C20.8677 241.316 19.5219 244.418 18.8757 245.695" stroke="black"/>
<path d="M83.1245 176.729C83.1245 176.729 76.1452 178.645 73.9128 179.466C71.6804 180.287 66.8938 181.985 62.1931 183.845C56.5687 186.07 49.913 187.95 48.2397 188.771C46.901 189.428 42.099 190.687 38.7446 190.687C35.8379 190.687 31.6832 187.019 30.3394 186.582C28.9956 186.144 25.4336 184.823 21.9406 183.845C17.2588 182.534 11.4186 181.382 10.7477 181.382C10.0769 181.382 5.94118 180.603 4.04284 182.203C3.00866 183.075 2.23138 185.117 2.10284 185.761C1.82974 187.129 1.8709 195.886 2.16715 199.444C2.60231 204.67 4.72795 209.023 5.57813 211.486C5.57813 211.486 6.71898 216.32 6.73613 219.969C6.75328 223.618 7.62853 231.419 7.6326 232.284C7.63903 233.653 8.47059 236.811 10.1818 239.4C11.6533 241.626 12.6182 242.319 14.1158 243.779C14.1158 243.779 17.7592 245.785 19.4385 246.242C21.1179 246.698 24.5569 247.786 24.7573 247.884C25.878 248.431 28.9365 249.551 31.4815 251.168C34.1494 252.862 36.8145 255.82 37.6569 256.641C38.2186 257.188 41.2743 261.387 42.7271 264.851C44.1775 268.31 44.3553 272.118 45.0148 275.798C45.8303 280.347 46.1805 285.924 46.1805 285.924C46.1805 285.924 47.0731 297.418 47.3758 302.344C47.3758 302.344 47.4146 310.59 47.4427 316.575C47.4658 321.491 47.4942 327.521 48.3405 329.163C49.1868 330.805 54.2683 335.807 59.845 338.468C66.9782 341.872 76.3528 341.752 79.7071 341.752C82.6255 341.752 88.6424 339.212 94.5107 339.289C99.9491 339.361 104.302 340.931 108.219 341.752C113.348 342.573 119.658 343.977 126.96 344.215C136.096 344.514 146.795 341.752 149.87 341.752C152.329 341.752 158.721 341.752 161.889 341.752C165.057 341.752 171.827 343.587 177.837 344.763C181.115 345.404 186.23 346.405 186.23 346.405" stroke="black"/>
<path d="M124.641 207.653C125.768 209.569 126.622 212.798 126.626 213.674C126.63 214.55 126.277 218.6 125.818 220.242L124.716 223.526" stroke="black"/>
<path d="M97.1459 186.309L99.9643 191.235C101.371 193.15 104.297 197.146 104.747 197.803C105.31 198.624 110.92 202.729 111.482 203.276C111.931 203.714 116.344 206.925 118.494 208.476" stroke="black"/>
<path d="M152.045 150.458L152.072 156.205C152.084 158.759 152.112 164.744 152.128 168.247C152.149 172.625 153.031 181.93 153.317 183.298C153.546 184.393 152.697 190.14 152.244 192.877" stroke="black"/>
<path d="M209.894 207.107C208.862 205.465 203.333 202.674 189.477 204.644C172.158 207.107 153.442 209.844 151.487 210.118C149.922 210.337 145.43 210.209 143.38 210.118C146.075 208.658 152.134 205.082 154.805 202.455C157.476 199.828 164.07 191.326 167.034 187.403" stroke="black"/>
<path d="M216.47 238.305C215.109 245.967 212.17 263.099 211.31 270.324C210.234 279.355 203.078 303.164 201.413 305.627C200.08 307.598 192.532 319.22 188.924 324.784" stroke="black"/>
<path d="M212.678 323.415L203.135 315.205" stroke="black"/>
<path d="M225.122 294.682C225.5 295.685 226.257 298.185 226.266 300.155C226.278 302.618 226.291 305.355 225.739 306.997C225.188 308.639 223.245 311.649 222.689 312.196C220.185 314.66 218.23 315.207 217.117 316.302" stroke="black"/>
<path d="M167.564 121.722C167.692 129.111 165.486 137.702 166.849 147.994C167.936 156.199 171.417 168.246 173.662 170.161C175.907 172.077 184.739 174.241 189.348 177.003C199.477 183.072 206.729 187.676 210.655 190.413C212.127 191.439 217.605 198.32 223.282 200.539C227.483 202.181 239.513 204.37 246.239 208.201C250 210.343 256.609 215.6 261.956 221.611C268.66 229.147 275.149 243.417 276.052 247.062C277.477 252.809 278.167 260.837 278.66 266.493C279.152 272.149 276.029 301.523 274.933 306.175C273.836 310.827 271.812 320.296 271.368 320.953M271.368 320.953C270.813 321.774 269.427 324.237 266.921 326.427C264.416 328.616 249.655 332.174 243.468 332.174C240.393 332.174 235.92 332.174 232.296 334.089C229.686 335.468 221.736 347.499 220.343 348.32C218.949 349.141 215.982 349.962 213.362 349.962C209.65 349.962 205.253 349.415 203.576 349.415C201.899 349.415 197.537 347.126 193.222 346.952C189.688 346.809 186.795 347.499 185.95 346.131C185.274 345.036 183.402 339.289 184.221 335.184C185.646 328.045 188.698 324.292 194.493 320.132C200.288 315.972 202.022 316.301 204.25 314.385C206.477 312.469 208.175 310.252 212.034 305.354C213.738 303.191 214.737 298.704 217.027 297.144C219.459 295.487 222.83 295.852 225.4 294.407C229.08 292.339 230.196 289.141 233.189 286.197C234.023 285.376 238.486 283.374 240.164 283.46C244.216 283.668 248.563 286.197 249.687 287.565C250.812 288.934 253.411 292.762 256.433 295.502C260.018 298.752 264.557 299.06 266.524 301.249C268.015 302.909 269.463 305.813 270.47 308.364C271.514 311.008 271.886 312.196 271.902 315.48C271.907 316.574 271.36 319.311 271.368 320.953Z" stroke="black"/>
<path d="M99.8362 163.867C101.498 160.583 100.931 158.941 101.476 155.931C101.476 155.931 96.1943 158.119 93.1094 160.036C90.9388 161.385 90.1246 162.757 87.8163 163.867C86.3623 164.566 85.4577 164.767 83.9093 165.235C83.1511 165.465 81.9552 165.783 81.9552 165.783C81.9552 165.783 81.9204 167.884 82.5299 169.067C83.508 170.965 85.299 170.714 87.2335 170.443L87.2883 170.435C89.2437 170.161 94.5466 168.428 95.9422 167.972L95.9422 167.972C96.7793 167.699 98.5483 166.412 99.8362 163.867Z" fill="#C10A0A" stroke="black"/>
<path d="M95.3254 155.658C97.0285 155.658 103.428 154.837 103.428 154.837C103.428 154.837 96.4036 158.421 94.2253 159.49C92.0471 160.558 89.9936 162.526 87.8154 163.595C87.8154 163.595 83.633 165.856 81.9542 165.51C80.0266 165.113 80.0413 164.656 78.5909 163.595C77.4689 162.773 75.734 160.379 76.3353 159.49C77.2373 158.156 80.5321 160.31 80.5321 160.31C80.995 159.672 81.9105 156.205 85.8239 156.205C88.6192 156.205 93.3687 155.658 95.3254 155.658Z" fill="#9B0000" stroke="black"/>
<path d="M64.142 122.816L62.7443 122.816L64.1574 126.1C64.4447 127.742 64.7358 130.205 65.3013 131.574C65.7537 132.669 66.8084 135.04 67.2811 136.5L68.4301 143.068" stroke="black"/>
<path d="M62.1528 115.702C62.1528 115.702 61.7217 118.649 62.1734 120.081C62.5496 121.273 62.8355 122.179 63.5826 122.544C64.3297 122.909 65.5406 122.818 66.0997 122.818C66.4159 122.818 67.4029 122.544 67.7769 122.818" stroke="black"/>
<path d="M60.4427 108.86L60.4736 115.428C60.4736 115.428 62.4113 115.824 63.2715 115.976C65.21 116.317 67.4773 118.712 67.4773 118.712" stroke="black"/>
<path d="M83.5193 141.7C85.1016 141.335 87.8784 141.372 88.5534 142.247C89.2284 143.123 90.2435 144.984 90.2473 145.805C90.2512 146.626 89.5152 148.633 88.0265 149.089C86.5378 149.545 84.449 149.199 83.5566 149.637C82.6641 150.074 79.9377 152.829 78.5456 154.015C77.1535 155.201 73.8007 155.544 72.6818 155.384C70.6511 155.093 68.7645 154.563 68.7581 153.194C68.7272 146.626 67.4715 117.344 67.4715 117.344C67.4612 115.154 67.4823 114.924 66.3315 112.691C65.7673 111.596 63.8054 110.502 62.4026 109.407C60.9998 108.312 59.0611 108.777 58.761 107.765C57.6249 103.934 58.1222 90.7976 58.1222 90.7976C58.1145 89.1556 57.2676 87.4041 56.1475 86.9662C55.0273 86.5284 53.9009 84.7769 53.6162 83.6822C53.3316 82.5875 53.597 79.5771 53.597 79.5771" stroke="black"/>
<path d="M89.3073 124.186C89.589 124.642 90.1913 125.972 90.4383 126.922C90.723 128.017 90.7293 129.385 90.7333 130.206" stroke="black"/>
<path d="M96.545 117.89C97.293 118.437 98.1345 118.915 98.5107 119.805C98.8868 120.696 98.7979 121.447 98.8005 121.995C98.8031 122.542 98.2504 123.91 97.6939 124.458C97.3791 124.767 95.7436 125.826 94.9051 125.826" stroke="black"/>
<path d="M84.2451 117.891C84.2451 117.891 85.5642 120.992 86.7802 121.996C87.9962 122.999 89.0434 124.227 90.9873 125.006C92.9207 125.78 95.1842 125.827 96.0228 125.827C97.4204 125.827 99.469 125.553 101.33 125.006C103.191 124.459 104.94 123.056 106.905 121.722C108.625 120.555 109.965 118.438 109.965 118.438" stroke="black"/>
<path d="M107.707 113.785C111.271 114.989 111.354 116.522 111.354 116.522C111.354 116.522 111.977 118.378 109.965 118.438C107.633 118.507 104.737 118.136 102.415 117.889C99.2667 117.554 97.4748 117.889 94.309 117.889L83.1278 117.889C83.1278 117.889 82.1815 115.377 83.1111 114.332C85.0575 112.142 89.5229 111.869 93.4421 111.869C97.0761 111.869 102.936 112.174 107.707 113.785Z" stroke="black"/>
<path d="M154.399 115.974C154.399 115.974 154.485 134.309 154.514 140.331C154.537 145.337 153.261 148.197 150.938 152.646C145.146 163.736 130.055 170.135 125.313 172.35C119.456 175.087 106.92 184.118 100.776 185.486C97.5861 186.197 91.7238 186.856 88.7564 185.486C85.2719 183.878 83.1414 180.286 83.1285 177.55C83.1193 175.588 85.0718 172.617 86.7341 171.529C90.9142 168.792 94.2706 169.224 97.0716 170.434C98.7123 171.143 100.718 173.171 100.718 173.171M111.281 100.922C111.281 100.922 104.568 100.1 98.9812 100.922C93.3944 101.743 86.7011 105.027 86.7011 105.027C86.7011 105.027 74.4364 112.416 72.7682 114.332C71.1001 116.247 72.9136 145.256 72.9136 145.256" stroke="black"/>
<path d="M146.243 105.302C146.243 105.302 140.114 109.681 139.286 112.144C138.459 114.607 140.091 116.796 140.991 117.891C141.89 118.985 143.8 120.901 145.477 120.901C147.155 120.901 149.697 120.68 151.34 119.259C153.568 117.333 154.795 115.872 156.063 113.238C157.859 109.511 158.602 106.407 158.248 102.292C158.066 100.169 157.408 99.2604 155.99 97.6392C153.215 94.4657 148.914 98.7339 146.212 98.7339C143.51 98.7339 137.231 98.7161 135.025 97.6392C132.224 96.2709 129.135 93.2603 127.173 92.1658C125.211 91.0712 123.406 91.2146 121.015 90.5237C118.927 89.9201 117.828 89.3177 115.697 88.8817C111.311 87.9845 109.913 90.7403 105.636 89.4292C102.362 88.4256 97.6936 84.6856 94.9931 85.0505C92.2927 85.4154 87.9524 85.7619 85.4956 86.4187C82.4246 87.2397 76.6807 84.807 72.0562 81.7663C66.7654 78.2876 64.4685 73.1913 61.6556 69.4512C58.8427 65.711 58.8025 57.1361 58.8025 57.1361C58.8149 59.7815 58.8439 65.9482 58.8604 69.4512C58.8768 72.9542 56.2873 77.1139 54.711 78.756C53.1347 80.398 51.4493 79.6746 50.2386 78.756C48.682 77.5749 50.2155 73.8299 50.2155 73.8299M50.2155 73.8299C50.2155 73.8299 53.2787 69.588 54.0942 66.4408C55.0058 62.9225 55.3584 57.8658 54.0504 57.1361C52.7425 56.4063 51.2537 56.8622 50.1408 57.9569C48.5669 59.5051 47.9003 61.6651 47.3777 64.7989C46.8856 67.7501 47.4086 71.3667 47.9727 72.4614C48.4772 73.4405 49.2837 73.8299 50.2155 73.8299Z" stroke="black"/>
<path d="M256.317 330.259C254.19 333.725 248.823 341.753 248.823 341.753C248.823 341.753 244.657 347.5 242.71 349.416C241.152 350.948 237.761 354.973 234.355 355.984C231.851 356.726 228.982 357.062 226.81 356.531C224.571 355.984 222.421 354.524 221.206 353.794C221.206 353.794 219.818 352.27 219.516 351.058C219.284 350.122 219.505 348.595 219.505 348.595" stroke="black"/>
<path d="M250.627 309.185C250.249 307.908 250.196 306.165 249.208 304.533C247.943 302.444 245.556 300.702 244.436 300.428C243.541 300.209 240.518 299.424 239.119 299.06" stroke="black"/>
<path d="M39.0235 190.687C39.8655 191.417 42.7957 196.325 43.2512 198.077C43.8206 200.266 45.2388 204.645 45.5235 205.739C46.0929 207.929 46.6751 212.855 46.125 214.77" stroke="black"/>
<path d="M89.8361 236.664C93.9453 238.671 101.048 243.232 103.86 246.79C105.166 248.442 109.204 254.71 110.347 259.105C111.771 264.578 110.86 268.957 111.812 273.336" stroke="black"/>
<path d="M79.5046 60.6945C84.1459 62.3513 88.7476 64.6171 90.9898 65.8942C92.2887 64.7082 95.1683 62.8288 96.2803 61.5153C97.6702 59.8734 101.298 58.5049 103.813 58.5049C107.391 58.5049 110.809 60.1467 112.491 60.9679C114.172 61.7892 116.986 65.8942 116.986 65.8942C116.986 65.8942 119.073 62.7719 120.597 60.9679C121.709 59.6518 127.565 56.5892 127.565 56.5892C127.565 56.5892 129.515 55.1412 124.469 52.2106C119.424 49.2799 101.95 39.4257 100.926 38.8008C98.6829 37.4324 91.2134 33.0192 82.9983 30.8643C76.9358 29.2741 67.6099 27.8539 65.3724 27.5802C63.1348 27.3066 55.8245 27.004 46.3797 30.8643C43.0317 32.2327 40.534 36.0642 40.825 38.5271C41.1161 40.99 46.4659 49.2004 46.4659 49.2004L50.9756 57.1368C50.9756 57.1368 52.9272 56.0419 55.1686 57.1368C57.4101 58.2317 59.0249 56.8629 62.1556 56.8629C66.069 56.8629 74.1983 58.8003 79.5046 60.6945Z" stroke="black"/>
<path d="M141.257 55.4944L131.995 47.5579L134.203 41.5372L124.11 35.2428L120.772 38.8005L100.602 29.4957L101.695 24.0224L86.8578 19.37L85.2076 25.117L69.5371 21.5593L69.2331 16.3596L52.7395 16.0859L52.7639 21.2857L41.8738 23.7487L40.4633 21.012L36.2831 23.7487C36.6679 26.3029 37.4309 30.0431 37.7194 31.9588C37.7924 32.4434 39.9801 37.1585 40.829 39.3479" stroke="black"/>
<path d="M149.934 58.2314C149.934 58.2314 142.656 56.042 141.256 55.4946C139.856 54.9473 136.722 54.3999 134.263 54.3999C131.188 54.3999 127.006 56.863 124.497 58.2313C120.496 60.4128 116.987 66.1677 116.987 66.1677C116.987 66.1677 109.662 65.8941 108.32 65.8941C106.643 65.8941 102.733 66.7151 99.1149 69.9991C95.4964 73.2831 94.9438 74.6515 90.1969 75.7462C85.45 76.8409 79.8542 75.7462 79.8542 75.7462C79.8542 75.7462 73.3177 72.7358 71.4451 70.8201C71.4451 70.8201 68.22 66.273 67.7778 63.7047C67.36 61.279 67.7482 57.4103 67.7482 57.4103" stroke="black"/>
<path d="M73.0661 58.7788C73.0686 59.3261 73.414 61.2641 74.2035 62.8839C75.2492 65.0293 78.6991 67.8099 78.6991 67.8099C79.2595 68.0836 80.3815 68.9046 83.1806 69.7256C85.42 70.3824 87.2787 69.3607 88.2083 68.9046L90.9895 65.8942" stroke="black"/>
<path d="M148.562 63.704C147.907 63.0654 146.762 61.2956 145.192 60.4198C143.231 59.3252 141.551 58.7778 138.755 58.7778C135.96 58.7778 133.447 59.3252 130.102 61.2409C126.756 63.1565 124.251 65.346 122.595 69.9984C120.94 74.6508 120.104 75.1981 118.992 76.5665C118.103 77.6611 116.769 79.3032 114.537 80.1242C112.021 80.1242 109.385 79.2387 106.424 78.7558C104.745 78.4822 101.213 78.6746 99.7175 79.3032C97.7647 80.1242 95.7324 83.8643 94.4335 85.0502" stroke="black"/>
<path d="M175.331 49.473C174.38 45.4592 173.395 38.6663 172.476 36.8843C171.348 34.6949 168.402 29.8677 166.564 27.8531C164.316 25.3901 157.579 19.3694 156.176 18.2747C154.773 17.18 144.968 12.5276 142.446 11.1593C140.428 10.0646 132.641 6.78058 128.164 5.6859C128.164 5.6859 121.042 3.86471 117.253 3.77031C112.928 3.66255 109.742 2.51701 106.358 5.13858C105.512 5.79356 104.132 7.32807 103.015 7.60174C101.898 7.87541 99.4395 7.27334 96.9888 9.24376C93.9256 11.7068 94.2115 13.0751 92.5369 13.6225C90.8623 14.1698 89.2914 14.1003 88.2344 14.9908C86.2854 16.6328 85.4593 19.2783 84.6276 20.7379L80.45 24.0219" stroke="black"/>
<path d="M92.9785 13.3492C95.2126 12.893 99.6846 12.8017 102.206 13.8965C105.124 15.1639 109.776 18.8224 111.751 22.6538C112.549 24.2019 112.332 27.3062 115.972 28.6745C119.612 30.0429 124.925 30.3165 126.325 30.8639C127.725 31.4112 136.119 33.0532 139.771 36.8846C143.115 40.3927 146.416 43.5331 147.657 49.4734C148.515 53.5785 147.686 55.7678 147.694 57.4098" stroke="black"/>
<path d="M103.294 7.60164C104.877 7.51041 108.325 7.60149 110.284 8.14888C111.426 8.46789 115.888 10.8856 118.141 14.4433C118.936 15.6984 120.111 19.9311 124.048 22.3798C126.707 24.0333 129.276 24.3867 131.609 25.1164C135.527 26.1199 139.91 26.1562 144.205 28.9478C147.493 31.0844 150.382 34.6948 151.511 36.8842C152.498 38.7998 153.492 42.0839 153.78 43.9996C154.011 45.5321 154.271 49.2906 154.377 51.9361" stroke="black"/>
<path d="M121.728 4.31738C122.668 6.05062 124.58 9.63939 124.83 10.0644C125.957 11.9801 128.767 14.9905 130.733 16.9062C131.013 17.1799 135.223 20.7376 137.741 21.2849C140.26 21.8322 146.132 22.3796 147.531 22.6532C148.93 22.9269 153.414 25.3899 155.097 26.4846C156.779 27.5793 159.59 30.8633 160.721 33.6C161.385 35.2071 162.985 39.6208 163.002 43.1785C163.005 43.8353 163.016 46.1888 163.021 47.2835" stroke="black"/>
<path d="M105.243 5.96073C105.24 5.30392 104.757 4.66711 104.394 3.77137C103.691 2.03322 100.136 1.80095 98.7934 1.58201C97.1149 1.30834 93.2066 2.40291 93.2066 2.40291C93.2066 2.40291 89.7677 3.11841 89.0265 5.13972C88.6581 6.14412 88.1063 7.60275 88.202 8.15008C89.6937 8.33253 93.348 8.69742 93.8004 9.7921C94.2528 10.8868 93.8102 11.8902 94.0915 12.2551" stroke="black"/>
<path d="M175.329 49.1996L170.289 47.5576C168.33 47.0103 164.976 47.0103 163.858 47.0103C162.739 47.0103 157.628 49.7469 155.49 50.8416C153.539 52.21 151.263 55.5487 149.932 57.957C148.269 60.9674 149.4 63.7041 147.448 64.5251C145.495 65.3461 139.069 66.1671 137.114 66.4408C135.158 66.7145 130.689 67.2618 128.745 69.9985C126.801 72.7352 123.765 80.9453 121.26 83.4083C119.257 85.3787 116.902 87.9695 115.975 88.8817" stroke="black"/>
<path d="M175.329 49.1997C174.582 48.8348 172.636 48.6524 170.575 48.6523C168.059 48.6522 163.733 51.8072 162.489 53.0311C160.819 54.6729 158.8 58.792 158.609 60.1466C158.338 62.0622 159.487 68.6304 158.659 70.8197C157.831 73.0091 156.719 74.3773 154.769 75.7456C153.209 76.8403 148.623 76.5668 146.107 76.5668C143.126 76.5668 137.725 77.2782 136.615 79.0297C135.227 81.219 134.968 85.5979 134.417 87.2399C133.866 88.8819 131.918 90.7976 130.804 91.6186C129.912 92.2754 128.946 92.8045 128.574 92.9869" stroke="black"/>
<path d="M165.16 26.4849C166.179 25.3902 168.359 23.5724 169.059 23.4745C171.014 23.2009 174.929 23.4745 176.609 24.022C177.671 24.3682 182.215 27.3059 183.061 28.948L179.712 30.0427C178.319 31.0461 176.601 32.5757 176.093 33.3268C174.983 34.9687 173.879 37.9791 173.882 38.5265C173.884 38.9643 173.893 40.8983 173.897 41.8105" stroke="black"/>
<path d="M183.061 28.9487C183.061 28.9487 185.392 29.3136 186.42 30.0434C187.449 30.7732 189.618 32.4517 190.07 33.3274C190.521 34.2032 191.385 35.6992 191.761 36.3378C190.735 36.1554 187.287 35.8999 186.171 36.3378C184.496 36.9946 181.708 38.5272 180.594 39.3482C179.791 39.9402 177.813 42.3585 177.258 43.1795C176.702 44.0006 175.874 46.1899 175.597 46.7373C175.376 47.1751 175.325 48.1968 175.327 48.6529L175.329 49.2003" stroke="black"/>
<path d="M199.083 47.8304C198.148 47.1919 195.601 45.7205 194.878 45.3674C193.197 44.5464 189.347 43.9441 187.323 43.7253C185.365 43.5137 180.337 44.2107 178.387 45.5789C177.079 46.4966 175.792 48.5604 175.329 49.199" stroke="black"/>
<path d="M191.761 36.3369C192.88 36.5194 194.561 37.4316 195.123 37.9789C195.751 38.5909 197.651 40.7156 197.933 41.263C198.332 42.037 199.064 43.9997 199.068 44.8207C199.071 45.4775 199.079 47.1012 199.082 47.831" stroke="black"/>
<path d="M203.972 76.8403C204.816 78.0262 207.175 80.2338 207.629 81.7664C208.197 83.6821 207.846 91.4102 207.678 92.1658C207.13 94.6289 205.467 97.6392 204.076 99.0076C202.963 100.102 200.458 102.383 198.787 103.66C197.116 104.937 194.873 103.66 194.873 103.66" stroke="black"/>
<path d="M175.047 48.6528C175.889 49.3826 177.744 51.6085 178.429 54.6736C179.286 58.5049 180.135 60.6943 179.31 63.7047C178.486 66.715 175.986 69.9991 174.042 72.7358C172.098 75.4725 169.323 79.8512 169.335 82.3142C169.346 84.7772 169.357 86.9666 167.969 89.1559C166.582 91.3453 164.354 93.1366 162.403 94.3557C159.95 95.8882 158.602 98.4607 157.114 99.008" stroke="black"/>
<path d="M175.328 48.9263C174.304 49.1087 172.249 50.0336 171.148 51.663C169.482 54.126 166.708 58.7784 166.723 61.7887C166.737 64.7991 166.752 68.0831 166.769 71.6408C166.784 74.7612 166.242 78.4826 165.13 79.8509C164.019 81.2193 161.513 83.4086 159.006 85.3243C156.5 87.24 153.981 86.6927 152.035 88.882C150.088 91.0714 148.981 93.2607 148.707 94.6291C148.325 96.5448 147.325 97.8219 146.77 98.7341" stroke="black"/>
<path d="M177.298 51.937C179.165 52.5756 183.686 55.0021 184.587 56.3157C185.713 57.9577 186.842 60.4208 187.408 61.7891C188.359 64.09 188.28 66.1678 186.894 68.6309C184.228 73.3674 178.53 73.2832 177.703 75.7463C176.569 79.1214 177.448 83.6827 177.463 86.9667C177.478 90.2508 175.823 94.9031 174.992 96.5452C174.161 98.1872 168.309 102.019 165.516 102.566C163.545 102.952 159.833 102.566 158.249 102.566" stroke="black"/>
<path d="M75.7565 155.383C75.7565 155.383 76.4585 156.869 76.6054 157.572C76.7149 158.096 76.6131 159.214 76.6131 159.214" stroke="black"/>
<path d="M122.517 112.692L145.373 98.7344L147.05 98.7344L122.533 115.976L122.517 112.692Z" fill="#F1B500"/>
<path d="M60.1702 110.502L51.801 114.06L60.1869 114.06L60.1702 110.502Z" fill="#F1B500"/>
<path d="M52.0807 114.06L122.516 112.691L122.539 117.617L116.954 118.712L116.974 123.091L108.591 123.638L108.604 126.375L75.0602 126.375L72.7738 115.702L67.1832 115.702L67.2282 125.28L57.165 125.28L52.0807 114.06Z" fill="#F1B500"/>
<rect width="2.79532" height="2.18938" transform="matrix(-1 -2.28731e-09 0.00470005 0.999989 109.126 118.438)" fill="black"/>
<rect width="2.7953" height="2.18938" transform="matrix(-1 -2.28732e-09 0.00470005 0.999989 113.03 116.249)" fill="black"/>
<rect width="2.79532" height="2.18938" transform="matrix(-1 -2.28731e-09 0.00470005 0.999989 105.782 120.628)" fill="black"/>
<rect width="2.79532" height="2.18938" transform="matrix(-1 -2.28731e-09 0.00470005 0.999989 102.986 120.628)" fill="black"/>
<rect width="2.79532" height="2.18938" transform="matrix(-1 -2.28731e-09 0.00470005 0.999989 110.793 116.249)" fill="black"/>
<rect width="2.79532" height="2.18938" transform="matrix(-1 -2.28731e-09 0.00470005 0.999989 106.332 118.438)" fill="black"/>
</svg>
