<svg width="245" height="392" viewBox="0 0 245 392" fill="none" xmlns="http://www.w3.org/2000/svg">
<path d="M132.827 83.7313C131.364 82.9336 129.327 82.4728 128.264 82.5438C128.233 82.3966 127.539 82.1744 127.077 82.0262L127.077 82.0262C126.499 81.841 125.092 81.9848 124.232 82.1666C123.372 82.3485 122.45 82.236 121.044 82.3798C119.637 82.5236 115.877 82.3964 114.292 82.7317C112.916 83.0226 109.367 84.0808 108.68 84.2263C107.992 84.3717 105.162 85.4316 103.615 85.7589C102.067 86.0862 101.957 86.417 99.6597 86.5954C98.4225 86.6915 97.6749 86.554 96.6121 86.6251C95.5492 86.6961 93.1894 86.5802 91.9857 86.8348C90.7821 87.0894 88.781 87.8202 87.7493 88.0385C86.7176 88.2567 85.2323 88.8784 83.3409 89.2784C81.8277 89.5985 80.1573 89.7981 79.5269 89.9314C78.4067 90.0146 75.9224 90.3863 74.822 90.6191C73.7215 90.8519 71.5604 91.0527 70.6018 91.0505C69.7109 91.0852 67.8231 91.3307 67.2729 91.4471C66.5851 91.5926 65.2406 92.0307 64.2712 92.5433C63.4956 92.9534 62.6704 93.7532 62.2845 94.1936L61.6116 95.2585L60.7044 96.0654C60.0796 96.5047 59.1989 97.4277 58.6107 98.0441L58.6087 98.0462C57.8735 98.8168 57.4039 99.9924 57.2776 101.095C57.2082 101.701 57.5581 102.42 56.9634 103.007C56.3067 103.3 54.2036 103.532 52.758 104.358C51.4761 105.09 50.4278 106.081 49.8646 106.815C49.087 107.828 48.6121 108.743 48.1747 109.017C47.0648 109.713 44.423 109.965 41.6718 110.547C38.9206 111.129 35.4802 113.548 34.026 114.316C32.5719 115.085 30.1009 116.992 28.0671 119.267C26.0334 121.542 24.5141 125.4 23.137 127.383C21.7599 129.365 21.0867 130.768 21.0855 132.122C21.0841 133.813 21.8824 135.416 22.4416 135.986C23.8158 137.387 25.4611 138.372 26.6899 139.085L29.453 142.806C30.7441 143.814 33.6018 145.434 35.7648 145.469C38.4685 145.512 41.7504 145.74 42.3285 145.925C42.9066 146.111 44.5582 148.704 46.3575 149.686C47.9821 150.572 49.6542 150.834 50.3879 151.755C50.9749 152.492 54.6204 162.387 57.5936 168.835C59.4497 172.86 60.7628 175.931 62.8041 179.88C65.3803 184.863 67.3593 189.525 68.8106 192.14C69.5878 193.54 72.2091 195.516 72.6498 198.401C73.15 201.675 70.593 205.14 70.1107 206.779C69.4224 209.119 67.7919 213.808 67.5997 218.688C67.4757 221.839 67.9689 225.529 68.593 226.781C69.2059 228.011 71.5591 230.613 72.1995 231.092C72.7118 231.476 73.4758 237.126 72.0676 238.962C71.5757 239.603 70.5427 239.66 69.7848 240.059C67.0756 241.487 65.5009 241.888 64.1091 242.951L64.0691 242.982C62.9713 243.82 62.0216 244.546 60.6834 246.29C59.5569 247.758 59.2901 249.045 58.7728 250.845C58.3589 252.286 59.2531 255.664 59.2042 257.981C59.1782 259.211 57.343 259.543 56.7169 260.659C55.9342 262.055 56.456 273.015 56.2041 275.221C56.1003 276.13 55.8085 280.994 57.0255 283.35C57.9991 285.235 63.3352 288.268 65.9594 289.917C65.9594 289.917 71.7851 312.363 73.0644 315.014C74.3436 317.665 74.8417 320.019 74.0279 321.268C72.9012 322.996 78.1672 330.079 77.974 330.581C77.7808 331.083 77.4596 332.566 77.4715 333.301C77.4863 334.221 79.1885 337.058 81.0291 339.929C82.0712 341.554 83.8653 344.026 84.1509 344.496C84.9781 345.859 85.3368 346.706 86.7094 349.798C87.8076 352.272 89.1109 356.055 90.0448 360.47C90.7565 363.836 92.9058 367.06 93.6795 368.312C94.772 370.08 97.4268 372.44 99.004 373.951C100.789 375.662 103.221 376.903 103.297 379.808C103.341 381.49 103.656 383.179 105.434 383.969C107.027 384.676 110.223 384.186 111.874 383.837C113.937 383.4 125.172 380.851 134.448 376.756C139.827 374.381 145.971 370.935 147.707 369.799C149.088 368.896 158.336 360.997 164.334 354.136C168.238 349.67 173.206 342.573 174.051 341.471C174.785 340.514 182.087 327.695 187.636 319.071C189.957 315.463 190.797 313.487 192.661 309.705C194.671 305.626 195.95 301.475 197.344 298.72C198.701 300.893 199.747 305.838 200.071 307.369C200.395 308.899 201.585 310.278 202.631 310.979C203.678 311.68 205.663 310.875 206.054 311.023C206.444 311.172 206.687 312.15 207.099 313.416C207.51 314.682 208.691 313.707 209.13 314.524C210.612 317.286 211.66 319.524 212.047 320.673C212.433 321.821 214.545 323.988 215.404 323.806C216.264 323.624 216.75 321.676 216.75 321.676C217.054 319.716 217.373 317.75 217.583 316.273C217.855 314.37 216.894 308.768 216.638 307.555C216.326 306.083 215.72 302.367 214.426 298.797C213.956 297.501 214.163 295.347 214.352 294.2C214.54 293.053 218.819 287.476 219.27 281.782C219.548 278.271 219.729 274.612 218.887 272.33C217.947 269.782 216.138 267.25 214.409 263.898C212.152 259.522 209.916 254.547 209.277 252.375C208.802 250.761 205.988 240.171 204.919 231.771C204.126 225.542 202.963 219.475 203.275 217.205C203.558 215.146 204.02 211.666 204.375 210.514C205.26 210.737 207.648 210.529 208.423 210.119C209.393 209.607 210.928 207.389 211.13 206.779C211.459 205.787 212.072 203.231 212.01 200.75C211.937 197.811 210.89 195.452 209.843 194.751C209.401 194.455 208.359 193.681 207.062 193.494C205.623 193.287 204.829 191.937 204.267 191.318C203.564 190.544 201.486 189.217 199.19 188.548C196.667 187.813 193.204 188.276 192.657 188.238C192.11 188.2 191.084 188.196 189.688 187.79C188.157 187.345 184.749 188.22 182.513 188.693C181.259 188.958 178.559 189.529 176.168 189.266C173.822 189.008 170.179 189.874 166.773 191.561C165.147 192.366 162.55 195.375 162.394 194.64C162.238 193.904 160.51 187.525 157.98 184.81C157.252 184.03 156.512 182.968 155.903 182.636C156.211 182.109 156.91 180.86 157.327 180.028C158.186 178.315 158.374 176.352 158.519 175.471C158.833 173.559 159.134 169.823 159.309 165.617C159.449 162.24 159.284 158.703 159.051 156.754C161.761 155.976 167.217 155.273 167.992 154.863C168.962 154.35 170.988 151.724 172.951 150.277C174.682 149.001 175.766 148.298 178.048 147.2C180.331 146.102 182.35 145.654 183.287 143.94C184.711 141.332 182.854 138.496 182.574 137.171C182.2 135.405 180.306 132.18 178.892 129.955C177.326 127.492 174.129 125.273 173.973 124.537C173.818 123.802 174.312 122.481 174.413 121.523C175.312 113.03 172.565 108.537 172.801 107.104C173.036 105.67 172.036 102.806 171.211 101.289C170.19 99.4107 168.123 96.7149 167.156 95.5358C166.188 94.3568 163.305 91.5907 160.328 89.7534C157.503 88.0098 155.079 87.0197 152.564 86.168C150.949 85.8946 148.106 85.1933 144.985 85.1573C141.953 85.1224 137.701 86.3906 136.122 86.5707C135.409 85.7477 134.857 84.8393 132.827 83.7313Z" fill="#8F97E4" stroke="black"/>
<path d="M70.2604 252.259C70.2604 252.259 70.6694 249.098 70.7969 246.303C70.8239 245.711 71.206 243.141 71.3942 242.333L72.1472 239.098C72.1472 239.098 70.6985 239.61 69.4894 240.122C68.2804 240.634 66.6956 241.387 65.2677 242.245C63.8717 243.084 62.7655 244.004 62.312 244.408C62.0307 244.658 60.6696 245.985 60.1686 247.014C59.7636 247.845 59.0568 249.401 58.7115 251.166C58.4107 252.703 58.7871 254.071 59.005 255.101C59.218 255.825 59.2067 256.904 59.2214 257.823C59.2345 258.637 58.9235 258.962 58.4388 259.219C57.1462 259.902 56.9061 260.465 56.6556 260.98C56.4552 261.391 56.3087 264.436 56.3547 265.502C56.3547 265.502 56.247 267.752 56.2732 269.363C56.2996 270.984 56.3488 272.269 56.3637 273.188C56.3785 274.108 56.2207 275.863 56.2036 277.527C56.1805 279.777 55.9501 281.374 57.0737 283.34C57.8579 284.711 60.2698 286.559 61.884 287.396L66.0079 289.907C66.1427 290.544 66.3177 291.434 66.5371 292.409C67.4418 296.427 68.4832 298.55 69.404 302.565C69.7192 303.939 70.0404 304.988 70.3853 306.355C71.0061 308.815 72.0841 311.838 72.2709 312.722C72.4577 313.605 72.9829 314.672 73.5027 315.997C74.0226 317.322 74.453 319.64 74.453 319.64C74.3848 320.167 73.911 321.242 73.8882 322.066C73.8487 323.491 74.9481 325.378 75.4476 326.041C75.8187 326.534 78.0416 329.662 78.0225 330.571C78.0062 331.343 77.3356 333.269 77.4103 333.622C77.5037 334.063 78.4162 335.76 79.2202 337.083C80.3794 338.99 82.4665 342.239 83.4345 343.418C84.1465 344.285 85.7028 347.121 86.7268 349.641C87.3082 351.071 88.052 353.358 88.052 353.358C88.5304 354.487 88.9644 355.972 89.3299 357.7C90.2015 361.821 91.168 364.692 93.1974 367.491C93.7489 368.252 94.1896 369.34 95.2266 370.291C97.6784 372.54 100.896 375.776 101.301 376.079C101.942 376.558 102.897 377.677 103.159 378.915C103.532 380.681 103.265 381.967 104.405 383.11C105.032 383.738 106.018 384.442 107.905 384.369C109.687 384.299 112.782 383.645 113.814 383.426C115.017 383.172 120.852 381.454 125.663 379.997C128.235 379.219 129.724 378.745 132.182 377.696C134.324 376.782 140.375 373.964 142.001 373.159C143.627 372.354 147.149 370.214 148.209 369.386C149.288 368.542 152.807 365.646 154.168 364.435C155.529 363.225 159.62 359.348 162.771 355.85C164.885 353.503 167.793 349.868 167.793 349.868L167.794 349.867C169.906 347.114 173.286 342.709 175.414 339.184C176.272 337.764 177.261 336.026 177.934 334.961C178.607 333.896 180.054 331.369 181.518 328.975C182.308 327.684 183.175 326.388 183.928 325.083C185.243 322.806 187.794 318.73 188.999 316.783C190.204 314.837 192.349 310.539 192.819 309.364C193.06 308.763 194.741 304.818 195.92 301.943C196.38 300.822 197.011 299.457 197.392 298.71C197.725 299.152 198.073 299.908 198.344 300.661C199.217 303.09 199.73 306.365 199.885 307.1C200.053 307.893 200.962 309.64 202.07 310.636C202.759 311.254 203.607 311.387 204.18 311.266L204.868 311.121C205.383 311.012 205.716 310.836 206.133 311.16C207.053 311.874 206.866 313.773 207.647 314.069C207.926 314.175 208.648 314.098 208.975 314.403C209.646 315.03 209.802 315.766 210.099 316.318C210.386 316.854 211.03 318.683 211.799 320.11C212.485 321.383 212.954 322.172 213.625 322.799C213.971 323.121 214.913 324.077 215.625 323.76C216.281 323.467 216.231 322.896 216.407 322.364C216.736 321.372 217.129 318.982 217.208 318.504C217.286 318.027 217.67 315.798 217.602 314.423C217.497 312.293 217.091 309.458 216.717 307.692C216.541 306.294 216.242 305.043 215.783 303.276C215.29 301.378 214.817 300.406 214.537 299.081C214.256 297.757 214.07 296.874 214.117 296.249C214.178 295.443 213.956 295.206 214.541 294.006C215.125 292.806 215.986 291.426 216.717 289.856C217.886 287.347 218.754 284.197 218.973 283.536C219.192 282.875 219.505 281.011 219.539 279.418C219.587 277.217 219.387 275.299 219.372 274.38C219.357 273.461 218.417 270.73 217.36 269.116C216.564 267.901 215.175 265.581 214.582 264.476C214.467 264.262 212.783 260.835 211.696 258.475C211.017 257.001 210.562 256.199 209.996 254.684C209.294 252.804 208.546 250.377 208.422 249.789C208.297 249.2 207.426 245.589 206.896 242.577C206.508 240.372 205.815 237.465 205.744 237.132C205.589 236.396 205.372 233.878 205.061 232.203C204.513 229.252 203.954 225.272 203.88 224.918C203.786 224.477 203.316 221.431 203.244 219.364C203.174 217.363 203.466 215.319 203.654 214.511C203.805 213.864 204.094 211.496 204.252 210.541C204.444 210.602 204.82 210.579 205.517 210.58L205.527 210.58C206.248 210.582 207.639 210.585 208.784 209.889C210.258 208.994 211.109 206.639 211.257 206.291C211.617 205.446 211.979 203.932 211.995 202.137C212.013 200.124 211.546 197.466 211.187 196.619C210.828 195.773 210.133 194.915 208.876 194.187C208.05 193.708 206.97 193.667 206.361 193.335C205.751 193.002 205.517 192.744 205.314 192.634C205.111 192.523 203.987 190.608 201.004 189.24C200.461 188.992 198.064 188.083 195.206 188.16C192.705 188.228 191.987 188.226 191.44 188.188C191.267 188.176 189.908 187.743 189.361 187.705C188.814 187.667 187.308 187.782 186.001 187.955C184.234 188.188 182.046 188.791 181.53 188.9C181.014 189.01 179.392 189.392 178.029 189.334C176.216 189.256 174.403 189.178 173.544 189.36C172.684 189.542 171.251 189.822 169.62 190.344C168.147 190.814 166.993 191.514 166.024 192.027C165.248 192.437 163.448 194.006 162.646 194.74C163.343 195.771 163.972 196.766 164.737 197.834C165.638 199.092 167.654 203.982 167.717 204.277C167.767 204.512 170.429 212.006 171.348 215.501C172.267 218.997 172.859 221.793 172.859 221.793C172.859 221.793 168.905 228.011 168.007 229.431C167.11 230.851 165.685 233.397 165.347 233.838C164.924 234.389 163.348 237.26 161.841 239.346C159.784 242.193 157.946 243.86 156.053 245.952L155.899 246.121C154.103 248.106 153.081 249.236 150.875 251.198C149.007 252.859 145.479 255.415 145.479 255.415C143.04 256.904 138.373 259.41 137.583 259.699C136.582 260.064 135.754 260.393 134.034 260.757C131.158 261.314 125.89 262.172 124.343 262.499C123.642 262.648 114.912 263.777 110.916 264.417C107.436 264.948 99.2616 266.39 97.7235 266.592C95.8009 266.845 87.8293 267.416 86.7824 267.523C83.969 267.81 80.9625 267.002 79.9845 266.808C78.1094 266.436 74.8749 265.582 73.8595 265.029C73.4453 264.803 71.3287 263.821 70.2975 263.476L70.0855 255.679L70.2604 252.259Z" fill="#3F54C0" stroke="black"/>
<path d="M179.436 189.19C178.669 190.377 177.042 192.31 176.056 193.595C175.352 194.512 173.52 198.59 172.893 200.722C172.48 202.126 171.7 206.97 171.166 209.543C170.966 210.507 171.132 213.343 170.99 214.655" stroke="black"/>
<path d="M191.237 188.077C189.735 189.471 186.71 192.663 185.809 193.838C184.682 195.306 180.675 201.843 179.845 203.863C179.335 205.106 178.31 208.493 178.089 210.846C177.986 211.944 177.773 214.45 178.429 215.848" stroke="black"/>
<path d="M201.345 192.551C199.344 193.282 195.139 194.632 192.386 196.906C189.633 199.18 184.721 204.831 183.829 206.558C182.426 209.27 181.271 212.019 180.212 214.088" stroke="black"/>
<path d="M207.111 193.484C207.454 195.102 209.092 198.6 207.872 199.627C206.347 200.91 203.761 199.727 201.354 200.237C198.947 200.746 192.148 203.058 190.238 204.587C187.626 206.677 176.784 217.273 175.55 219.225C174.877 220.29 173.406 221.831 173.015 222.529C172.619 223.235 169.884 228.111 168.584 231.308C167.049 235.938 163.831 244.675 163.305 246.263C162.778 247.85 159.47 252.763 158.124 254.893C156.497 256.826 153.239 260.846 151.287 262.489C148.848 264.542 145.392 266.042 143.563 266.737C142.1 267.292 134.22 269.277 130.448 270.126C132 270.105 136.503 269.055 137.216 269.002C140.576 268.752 152.129 264.771 154.615 263.784C158.758 262.139 165.509 255.835 167.894 252.672C169.487 250.559 172.636 244.801 173.919 242.941C175.855 239.918 178.24 234.493 179.524 232.069C180.827 229.608 182.828 224.759 183.768 222.407C184.708 220.056 187.604 214.215 188.527 212.636C189.451 211.057 191.986 207.753 192.831 206.652C193.675 205.551 195.583 204.379 196.521 203.719C197.272 203.191 198.871 203.222 199.648 203.211C199.387 203.113 197.584 203.648 196.677 204.455C195.945 205.106 193.204 208.418 191.577 210.915C189.011 214.851 187.488 221.313 186.563 224.583C185.639 227.854 183.676 238.11 183.72 240.868C183.765 243.626 182.587 250.794 180.348 254.651C178.11 258.507 174.09 262.432 171.619 264.339C169.148 266.245 161.063 271.338 155.623 272.796C150.183 274.254 146.26 275.238 145.4 275.42C144.712 275.565 141.383 275.962 139.804 276.142" stroke="black"/>
<path d="M108.274 264.668C110.878 265.655 116.667 267.998 118.992 269.474C121.897 271.32 129.959 273.766 132.506 274.765C135.053 275.763 143.429 276.298 146.773 276.821C149.449 277.239 153.546 277.131 155.26 277.024" stroke="black"/>
<path d="M73.0785 264.732C77.1697 268.787 92.8015 274.183 94.8717 275.191C97.0744 276.262 97.7148 276.742 99.9501 276.269C102.185 275.796 104.187 275.065 106.296 275.695C108.405 276.326 117.172 277.854 120.313 278.266C123.454 278.678 131.315 279.321 134.971 279.624C138.628 279.927 145.944 278.841 146.866 278.953C147.603 279.043 150.58 278.68 151.977 278.487" stroke="black"/>
<path d="M58.5798 259.035C59.2538 262.788 59.5239 269.445 59.8975 271.211C60.1485 272.397 61.0182 276.509 61.924 277.394C63.2722 278.711 67.8593 281.674 68.4685 282.006C69.0778 282.338 76.1396 285.15 79.9996 285.563C83.8595 285.977 89.8911 287.315 92.2821 287.578C94.6169 287.835 106.42 289.89 108.862 290.375C111.487 290.896 121.379 292.648 123.082 293.056C124.785 293.465 126.739 293.359 128.52 293.29C130.302 293.22 132.131 292.526 134.023 292.126C135.914 291.726 138.198 288.936 139.418 287.909C140.638 286.883 141.999 285.672 143.047 284.682C144.088 283.698 146.316 282.299 147.395 281.456C148.523 280.574 150.694 279.22 152.32 278.415L154.603 277.317" stroke="black"/>
<path d="M65.9771 289.76C66.2736 290.312 76.5224 294.602 78.7251 295.673C80.9279 296.745 100.023 300.394 101.461 300.397C102.899 300.401 110.307 299.756 112.59 298.658C114.416 297.78 120.346 294.558 123.082 293.056" stroke="black"/>
<path d="M70.5102 306.943C70.9998 306.994 72.6139 306.867 75.1528 305.961C77.6917 305.055 82.0994 303.416 83.9859 302.709" stroke="black"/>
<path d="M74.1863 320.927C74.8741 320.782 75.4997 320.342 78.0952 319.024C80.6907 317.706 86.6808 312.903 88.3232 311.325C89.6371 310.063 94.2415 305.051 96.3795 302.702" stroke="black"/>
<path d="M112.278 298.878C111.98 300.017 108.271 305.415 107.379 307.141C106.486 308.867 96.2244 319.802 95.1453 320.645C94.0662 321.489 84.0102 329.151 82.1336 330.47C80.6323 331.526 78.5276 331.541 77.6629 331.416" stroke="black"/>
<path d="M133.883 292.309C133.568 294.221 129.888 303.149 126.991 308.989C124.277 314.463 106.451 331.631 104.183 333.648C102.369 335.262 89.8744 343.286 84.0281 344.523" stroke="black"/>
<path d="M143.22 284.646C142.382 289.743 140.367 301.055 139.013 305.524C137.32 311.109 125.358 336.088 124.731 338.22C124.104 340.351 113.107 352.056 112.637 353.232C112.261 354.173 108.559 357.733 106.755 359.396" stroke="black"/>
<path d="M170.377 272.904C169.52 275.084 167.028 279.654 166.087 281.5C164.944 283.74 159.153 293.729 158.401 295.272C158.107 295.877 151.371 310.443 150.729 311.656C150.087 312.868 146.719 322.47 145.529 324.441C144.465 326.204 141.303 331.639 139.957 333.769C139.163 335.026 130.216 344.59 128.365 346.061C126.52 347.527 118.32 353.772 116.058 354.968C114.604 355.737 107.583 359.067 106.755 359.396C105.926 359.725 99.7968 363.02 97.1701 364.191C96.2783 364.589 93.9644 366.304 92.9633 367.233" stroke="black"/>
<path d="M189.18 270.926C185.795 275.589 178.677 285.479 177.287 287.741C175.55 290.569 167.409 306.436 167.126 308.495C166.843 310.554 164.145 321.58 163.112 323.49C162.079 325.399 157.774 333.075 156.209 335.866C154.957 338.099 150.806 343.16 148.886 345.411C146.034 348.628 140.138 355.349 139.375 356.494C138.611 357.64 134.249 361.986 132.163 364.016L129.098 366.51" stroke="black"/>
<path d="M191.171 244.674C190.928 249.184 190.431 258.33 190.393 258.83C190.346 259.455 188.692 274.566 188.253 275.889C187.902 276.947 186.285 286.965 185.52 291.842C184.552 296.045 182.602 304.545 182.539 304.927C182.46 305.405 178.903 316.613 176.727 320.763C175.29 323.503 167.308 332.289 164.868 334.342C162.429 336.396 150.431 348.467 149.023 350.302C147.614 352.137 140.264 358.151 139.669 358.738C139.075 359.325 127.173 368.454 124.344 369.514C121.514 370.574 113.868 374.344 111.117 374.926C108.916 375.391 103.812 376.061 101.535 376.337" stroke="black"/>
<path d="M198.966 267.933C198.422 269.893 197.31 274.372 197.208 276.608C197.08 279.402 197.008 290.949 197.195 291.832C197.344 292.539 197.388 296.712 197.392 298.71" stroke="black"/>
<path d="M214.086 296.101C213.935 296.236 213.347 297.026 212.208 299.112C210.783 301.72 208.982 305.945 208.919 307.342C208.868 308.46 208.914 312.417 208.944 314.256" stroke="black"/>
<path d="M193.95 213.642C193.542 215.112 194.504 223.058 195.236 225.67C195.969 228.283 198.318 240.24 198.692 242.006C199.065 243.772 198.964 253.48 198.227 255.943C197.608 258.009 195.64 264.946 195.655 265.866C195.67 266.785 200.467 268.231 203.372 270.076C206.255 271.907 209.693 275.455 210.696 276.676C212.632 279.034 213.423 285.325 212.937 287.273C212.548 288.831 210.504 293.322 209.414 295.244C208.094 297.779 206.938 302.226 206.405 304.799C205.979 306.85 205.931 309.922 205.93 311.049" stroke="black"/>
<path d="M134.895 260.575C135.833 260.479 138.249 260.296 140.412 260.331C142.575 260.365 145.71 260.748 147.007 260.935" stroke="black"/>
<path d="M72.2885 238.915C71.9382 240.373 71.1999 243.45 71.0493 244.097C70.8987 244.744 70.366 251.058 70.1185 254.134C70.1679 257.199 70.273 263.358 70.2979 263.476C70.3228 263.593 73.8392 264.93 75.4535 265.768C77.5786 266.189 82.1631 267.424 84.6261 267.518C87.0891 267.612 94.0037 267.123 96.8641 266.774C99.3702 266.449 104.183 265.534 105.696 265.214C107.209 264.893 115.882 263.828 119.295 263.26C122.978 262.839 129.736 261.666 133.175 260.939C137.474 260.029 138.587 259.442 143.087 256.843C146.449 254.902 149.374 252.592 150.422 251.602C151.47 250.611 157.66 244.578 160.152 241.548C162.295 238.942 165.159 234.244 166.411 232.075C167.726 229.798 171.315 224.683 172.828 221.646" stroke="black"/>
<path d="M162.646 194.74C163.005 195.587 165.237 198.497 166.189 200.448C166.853 201.811 169.261 208.255 169.822 209.982C170.851 213.147 171.826 217.758 172.859 221.793" stroke="black"/>
<path d="M159.511 205.397C158.51 205.763 155.571 207.153 154.349 209.872C153.344 212.109 152.877 213.105 153.716 218.77C154.388 223.302 155.384 224.106 155.758 225.872" stroke="black"/>
<path d="M86.8731 235.676C86.8731 235.676 87.6277 242.641 90.6146 246.57C93.6015 250.5 100.028 258.632 101.84 259.725" stroke="black"/>
<path d="M72.6366 198.096C72.8109 198.92 76.4674 202.052 78.2739 203.515L81.492 205.14C81.7776 206.208 82.4861 208.651 83.0352 209.888C83.7215 211.434 84.439 213.127 86.2504 214.897C87.6995 216.312 92.4139 220.256 94.59 222.051" stroke="black"/>
<path d="M81.4914 205.141C81.398 204.7 84.0884 202.132 86.1992 201.07C87.8879 200.221 90.7287 198.421 93.0164 197.629" stroke="black"/>
<path d="M133.866 166.54C135.756 167.267 139.993 169.18 141.817 171.008C144.097 173.294 147.047 177.897 148.311 179.629C149.323 181.014 150.468 185.579 150.914 187.688" stroke="black"/>
<path d="M117.614 164.442C118.988 165.843 126.99 166.303 128.865 166.675C130.365 166.973 138.889 165.938 142.963 165.384" stroke="black"/>
<path d="M79.5183 173.73C80.7842 173.77 87.6607 174.007 90.443 173.572C92.6689 173.224 99.792 170.211 103.075 168.747" stroke="black"/>
<path d="M72.9643 234.467C73.319 233.879 74.8542 232.191 76.3425 231.753C78.2028 231.206 83.7448 230.23 85.3546 230.197C86.9644 230.164 90.4571 229.69 93.3654 228.152C96.2737 226.615 97.5885 224.338 99.0441 221.877C100.5 219.417 104.039 216.864 105.661 214.942C107.241 213.071 110.031 210.123 111.997 208.375C113.357 207.164 116.662 205.235 118.909 203.684C120.946 202.277 126.07 200.17 129.384 198.854C133.527 197.209 139.953 194.466 142.752 193.259C145.55 192.052 147.052 191.306 150.053 189.562C152.133 188.353 155.041 186.815 156.027 185.531C156.537 184.866 157.055 183.878 157.029 183.474" stroke="black"/>
<path d="M155.952 182.625C154.716 183.86 151.731 186.962 150.117 188.164C148.1 189.667 138.532 193.69 137.734 194.166C136.937 194.642 124.163 199.651 122.193 200.529C120.223 201.406 112.905 205.876 111.201 207.159C109.496 208.442 102.505 213.611 100.801 214.894C99.8197 215.632 95.2628 220.986 94.4179 222.087C93.8817 222.786 90.7877 227.006 90.2556 227.887C89.8299 228.592 87.5504 229.536 86.2845 229.496C85.0186 229.456 82.0346 228.089 82.0346 228.089C80.6235 227.362 77.2355 226.802 75.797 227.475C74.3586 228.148 73.2756 229.993 72.4515 231.192" stroke="black"/>
<path d="M116.797 224.272C116.665 226.197 117.135 230.966 117.508 232.732C117.882 234.498 119.243 239.233 119.72 241.49" stroke="black"/>
<path d="M109.581 163.835C110.268 165.381 111.854 174.579 112.414 177.228C112.975 179.877 114.636 191.98 114.04 194.258C113.564 196.081 113.117 201.219 112.954 203.56L114.988 219.12M114.988 219.12C115.895 218.313 117.6 217.03 119.491 216.63C121.014 216.308 121.635 216.049 121.804 217.371C121.962 218.619 119.492 219.521 118.628 220.195C117.549 221.039 116.483 222.529 114.703 222.871C113.573 223.087 113.031 222.609 112.907 222.021C112.782 221.432 113.486 220.514 113.486 220.514L114.988 219.12Z" stroke="black"/>
<path d="M78.1739 156.333C79.0173 156.923 78.3599 158.062 78.0627 158.355C77.7655 158.649 76.1713 158.755 76.1713 158.755C75.442 158.704 73.6146 158.558 72.8272 158.232C71.8429 157.826 69.9366 157.306 69.6564 155.982C69.3452 154.51 73.4082 155.034 74.1271 155.036C74.8461 155.038 77.3304 155.742 78.1739 156.333Z" stroke="black"/>
<path d="M45.2549 144.23C45.0469 143.813 45.1358 142.508 46.3517 140.923C47.6189 139.271 48.8702 138.391 51.2775 137.882C56.0595 138.408 59.8952 136.059 60.7984 134.484C62.1031 132.21 63.7393 131.249 66.6313 130.637C70.5862 129.8 72.6347 128.444 74.621 126.794C76.6073 125.144 80.1827 122.934 83.9566 120.822C87.4905 118.844 91.8623 117.715 93.7443 116.138" stroke="black"/>
<path d="M49.655 151.448C51.4368 151.379 51.625 150.57 52.1572 149.689C53.2084 147.948 53.0658 147.19 52.9102 146.455C52.7425 145.662 51.5835 144.429 54.1167 142.817C56.7438 141.145 59.0099 141.32 60.7457 140.185C61.5583 139.653 64.3427 137.374 65.7974 136.041C67.252 134.708 67.1258 132.794 68.5678 131.303C69.421 130.422 71.6332 128.81 71.6332 128.81" stroke="black"/>
<path d="M133.814 100.897L129.983 102.322C128.883 103.067 126.33 104.755 124.917 105.546C123.503 106.337 120.857 107.02 119.711 107.262L116.96 107.844C118.819 108.989 122.695 111.521 123.332 112.493C124.128 113.708 127.718 118.792 127.781 119.086C127.843 119.38 129.358 120.597 130.889 121.042C132.42 121.487 135.219 120.28 136.39 121.57C137.327 122.602 140.508 124.902 141.981 125.923C142.674 126.648 144.139 128.142 144.464 128.319C144.87 128.54 146.308 128.544 148.637 128.513C150.5 128.487 152.977 128.363 153.982 128.304C153.295 128.45 151.472 128.835 149.684 129.214C147.448 129.687 144.212 130.525 142.275 129.858C140.725 129.325 137.985 127.127 136.808 126.094C136.262 125.492 134.978 124.237 134.216 124.029C133.262 123.769 129.552 124.046 128.652 123.207C127.981 122.58 126.294 120.835 125.373 119.595C124.114 118.17 121.408 115.114 120.658 114.289C119.909 113.463 117.773 112.541 116.94 112C114.972 111.186 112.519 110.629 111.972 110.591C111.425 110.553 108.205 110.619 106.283 110.872" stroke="black"/>
<path d="M153.644 121.611C153.754 121.28 155.991 119.116 156.819 118.787C157.482 118.524 160.431 117.459 161.822 116.96" stroke="black"/>
<path d="M174.1 124.049C173.392 123.533 171.82 122.44 171.195 122.204C170.57 121.967 168.851 121.316 168.07 121.02" stroke="black"/>
<path d="M157.707 141.663C157.692 140.743 156.973 140.742 159.365 139.313C161.758 137.884 163.711 137.779 166.243 137.858C168.775 137.938 170.352 139.449 172.837 140.154C175.321 140.858 176.274 141.118 178.4 140.976C180.525 140.834 182.87 140.03 183.807 141.062" stroke="black"/>
<path d="M163.481 150.282C164.018 149.707 165.183 148.476 165.546 148.154C166 147.75 167.845 146.284 170.143 146.105C171.981 145.962 173.264 145.855 173.675 145.819" stroke="black"/>
<path d="M123.567 94.9153C125.301 95.471 130.317 96.255 132.801 96.9596C134.886 97.5507 139.473 98.7772 141.426 100.363C142.987 101.632 146.59 104.396 147.985 105.895C147.985 105.895 151.84 111.383 152.276 113.444C152.712 115.504 154.028 120.453 153.535 121.941C153.041 123.43 153.796 127.422 154.092 127.974C154.329 128.416 156.549 137.038 157.613 141.221C158.677 145.404 159.1 156.743 159.1 156.743" stroke="black"/>
<path d="M152.611 105.685C153.763 105.749 156.443 106.135 157.955 107.169C159.845 108.46 160.282 108.829 162.69 108.32C165.097 107.811 165.347 107.296 166.895 106.969C168.442 106.642 169.489 106.779 170.599 106.647" stroke="black"/>
<path d="M48.519 146.923C48.7482 146.874 49.4754 147.028 50.5498 148.031C51.8928 149.284 53.9695 151.459 55.0472 152.307C56.1248 153.155 61.8244 158.869 63.4802 159.902C64.5888 160.594 69.7919 162.565 71.4017 162.532C73.0115 162.499 77.789 162.155 79.467 161.595C81.984 160.755 90.1441 158.568 93.0673 157.949C95.9904 157.331 107.293 153.864 108.841 153.537C110.388 153.209 120.861 151.763 124.018 151.403C127.175 151.042 132.54 150.369 134.835 149.883C137.586 149.301 140.612 147.925 142.371 146.444C143.591 145.417 146.938 142.557 147.532 141.97C148.126 141.383 151.846 135.952 152.055 135.324C152.493 134.001 153.533 130.142 154.062 127.827" stroke="black"/>
<path d="M21.1798 133.178C21.4611 132.811 21.8843 132.26 23.2599 131.969C24.6355 131.678 25.7128 132.527 26.6348 132.639C28.0726 132.643 29.5205 131.844 30.9957 132.024C32.8398 132.249 34.417 133.761 34.9476 134.571C35.4783 135.381 36.9776 137.37 37.6802 138.144C38.3828 138.918 41.083 142.345 41.6923 142.677C42.3015 143.01 44.5834 143.603 45.4269 144.194C46.2703 144.784 48.1291 145.928 48.519 146.922C48.9089 147.916 49.267 148.763 49.0171 149.277C48.7397 149.848 48.2557 150.207 47.8594 150.598" stroke="black"/>
<path d="M62.7213 114.704C60.3141 115.214 56.921 117.007 54.6842 119.172C52.8966 120.902 49.5818 124.095 48.6453 126.292C47.7088 128.489 46.5212 130.688 45.6392 132.463" stroke="black"/>
<path d="M48.5054 108.64C49.2243 108.642 50.8246 108.734 51.4745 109.088C52.1243 109.443 53.9114 110.418 54.7237 110.861" stroke="black"/>
<path d="M57.1833 102.96C58.3716 102.35 61.6438 102.318 63.701 102.351C66.4048 102.394 69.4091 103.758 70.2322 104.352C71.716 105.422 72.4009 108.66 74.2286 109.657C76.0563 110.654 78.5259 110.439 79.3856 110.257C80.2453 110.076 82.4807 109.603 83.8237 110.856C84.7733 111.743 86.8798 113.9 88.6027 114.766C90.3256 115.631 92.8785 116.296 94.1184 116.213C96.0669 116.082 98.7136 115.856 100.996 114.758C103.279 113.66 105.031 111.752 107.189 110.065C109.348 108.379 110.587 107.451 112.85 106.254C115.759 104.716 120.277 103.146 122.34 102.709C124.404 102.273 131.203 101.296 133.094 100.896C135.502 100.386 141.065 101.209 143.268 102.28C144.87 103.06 147.437 105.857 148.563 106.08C150.109 106.387 152.267 105.758 155.19 105.14C158.113 104.521 160.927 104.234 162.021 104.31C163.114 104.386 167.02 105.866 168.521 106.164C170.021 106.462 171.505 106.968 172.708 107.277" stroke="black"/>
<path d="M132.827 83.7313C131.364 82.9336 129.327 82.4728 128.264 82.5438C128.233 82.3966 127.539 82.1744 127.077 82.0262L127.077 82.0262C126.499 81.841 125.092 81.9848 124.232 82.1666C123.372 82.3485 122.45 82.236 121.044 82.3798C119.637 82.5236 115.877 82.3964 114.292 82.7317C112.916 83.0226 109.367 84.0808 108.68 84.2263C107.992 84.3717 105.162 85.4316 103.615 85.7589C102.067 86.0862 101.957 86.417 99.6597 86.5954C98.4225 86.6915 97.6749 86.554 96.6121 86.6251C95.5492 86.6961 93.1894 86.5802 91.9857 86.8348C90.7821 87.0894 88.781 87.8202 87.7493 88.0385C86.7176 88.2567 85.2323 88.8784 83.3409 89.2784C81.8277 89.5985 80.1573 89.7981 79.5269 89.9314C78.4067 90.0146 75.9224 90.3863 74.822 90.6191C73.7215 90.8519 71.5604 91.0527 70.6018 91.0505C69.7109 91.0852 67.8231 91.3307 67.2729 91.4471C66.5851 91.5926 65.2406 92.0307 64.2712 92.5433C63.4956 92.9534 62.6704 93.7532 62.2845 94.1936L61.6116 95.2585L60.7044 96.0654C60.0796 96.5047 59.1989 97.4277 58.6107 98.0441L58.6087 98.0462C57.8735 98.8168 57.4039 99.9924 57.2776 101.095C57.2082 101.701 57.5581 102.42 56.9634 103.007C56.3067 103.3 54.2036 103.532 52.758 104.358C51.4761 105.09 50.4278 106.081 49.8646 106.815C49.087 107.828 48.6121 108.743 48.1747 109.017C47.0648 109.713 44.423 109.965 41.6718 110.547C38.9206 111.129 35.4802 113.548 34.026 114.316C32.5719 115.085 30.1009 116.992 28.0671 119.267C26.0334 121.542 24.5141 125.4 23.137 127.383C21.7599 129.365 21.0867 130.768 21.0855 132.122C21.0841 133.813 21.8824 135.416 22.4416 135.986C23.8158 137.387 25.4611 138.372 26.6899 139.085L29.453 142.806C30.7441 143.814 33.6018 145.434 35.7648 145.469C38.4685 145.512 41.7504 145.74 42.3285 145.925C42.9066 146.111 44.5582 148.704 46.3575 149.686C47.9821 150.572 49.6542 150.834 50.3879 151.755C50.9749 152.492 54.6204 162.387 57.5936 168.835C59.4497 172.86 60.7628 175.931 62.8041 179.88C65.3803 184.863 67.3593 189.525 68.8106 192.14C69.5878 193.54 72.2091 195.516 72.6498 198.401C73.15 201.675 70.593 205.14 70.1107 206.779C69.4224 209.119 67.7919 213.808 67.5997 218.688C67.4757 221.839 67.9689 225.529 68.593 226.781C69.2059 228.011 71.5591 230.613 72.1995 231.092C72.7118 231.476 73.4758 237.126 72.0676 238.962C71.5757 239.603 70.5427 239.66 69.7848 240.059C67.0756 241.487 65.5009 241.888 64.1091 242.951L64.0691 242.982C62.9713 243.82 62.0216 244.546 60.6834 246.29C59.5569 247.758 59.2901 249.045 58.7728 250.845C58.3589 252.286 59.2531 255.664 59.2042 257.981C59.1782 259.211 57.343 259.543 56.7169 260.659C55.9342 262.055 56.456 273.015 56.2041 275.221C56.1003 276.13 55.8085 280.994 57.0255 283.35C57.9991 285.235 63.3352 288.268 65.9594 289.917C65.9594 289.917 71.7851 312.363 73.0644 315.014C74.3436 317.665 74.8417 320.019 74.0279 321.268C72.9012 322.996 78.1672 330.079 77.974 330.581C77.7808 331.083 77.4596 332.566 77.4715 333.301C77.4863 334.221 79.1885 337.058 81.0291 339.929C82.0712 341.554 83.8653 344.026 84.1509 344.496C84.9781 345.859 85.3368 346.706 86.7094 349.798C87.8076 352.272 89.1109 356.055 90.0448 360.47C90.7565 363.836 92.9058 367.06 93.6795 368.312C94.772 370.08 97.4268 372.44 99.004 373.951C100.789 375.662 103.221 376.903 103.297 379.808C103.341 381.49 103.656 383.179 105.434 383.969C107.027 384.676 110.223 384.186 111.874 383.837C113.937 383.4 125.172 380.851 134.448 376.756C139.827 374.381 145.971 370.935 147.707 369.799C149.088 368.896 158.336 360.997 164.334 354.136C168.238 349.67 173.206 342.573 174.051 341.471C174.785 340.514 182.087 327.695 187.636 319.071C189.957 315.463 190.797 313.487 192.661 309.705C194.671 305.626 195.95 301.475 197.344 298.72C198.701 300.893 199.747 305.838 200.071 307.369C200.395 308.899 201.585 310.278 202.631 310.979C203.678 311.68 205.663 310.875 206.054 311.023C206.444 311.172 206.687 312.15 207.099 313.416C207.51 314.682 208.691 313.707 209.13 314.524C210.612 317.286 211.66 319.524 212.047 320.673C212.433 321.821 214.545 323.988 215.404 323.806C216.264 323.624 216.75 321.676 216.75 321.676C217.054 319.716 217.373 317.75 217.583 316.273C217.855 314.37 216.894 308.768 216.638 307.555C216.326 306.083 215.72 302.367 214.426 298.797C213.956 297.501 214.163 295.347 214.352 294.2C214.54 293.053 218.819 287.476 219.27 281.782C219.548 278.271 219.729 274.612 218.887 272.33C217.947 269.782 216.138 267.25 214.409 263.898C212.152 259.522 209.916 254.547 209.277 252.375C208.802 250.761 205.988 240.171 204.919 231.771C204.126 225.542 202.963 219.475 203.275 217.205C203.558 215.146 204.02 211.666 204.375 210.514C205.26 210.737 207.648 210.529 208.423 210.119C209.393 209.607 210.928 207.389 211.13 206.779C211.459 205.787 212.072 203.231 212.01 200.75C211.937 197.811 210.89 195.452 209.843 194.751C209.401 194.455 208.359 193.681 207.062 193.494C205.623 193.287 204.829 191.937 204.267 191.318C203.564 190.544 201.486 189.217 199.19 188.548C196.667 187.813 193.204 188.276 192.657 188.238C192.11 188.2 191.084 188.196 189.688 187.79C188.157 187.345 184.749 188.22 182.513 188.693C181.259 188.958 178.559 189.529 176.168 189.266C173.822 189.008 170.179 189.874 166.773 191.561C165.147 192.366 162.55 195.375 162.394 194.64C162.238 193.904 160.51 187.525 157.98 184.81C157.252 184.03 156.512 182.968 155.903 182.636C156.211 182.109 156.91 180.86 157.327 180.028C158.186 178.315 158.374 176.352 158.519 175.471C158.833 173.559 159.134 169.823 159.309 165.617C159.449 162.24 159.284 158.703 159.051 156.754C161.761 155.976 167.217 155.273 167.992 154.863C168.962 154.35 170.988 151.724 172.951 150.277C174.682 149.001 175.766 148.298 178.048 147.2C180.331 146.102 182.35 145.654 183.287 143.94C184.711 141.332 182.854 138.496 182.574 137.171C182.2 135.405 180.306 132.18 178.892 129.955C177.326 127.492 174.129 125.273 173.973 124.537C173.818 123.802 174.312 122.481 174.413 121.523C175.312 113.03 172.565 108.537 172.801 107.104C173.036 105.67 172.036 102.806 171.211 101.289C170.19 99.4107 168.123 96.7149 167.156 95.5358C166.188 94.3568 163.305 91.5907 160.328 89.7534C157.503 88.0098 155.079 87.0197 152.564 86.168C150.949 85.8946 148.106 85.1933 144.985 85.1573C141.953 85.1224 137.701 86.3906 136.122 86.5707C135.409 85.7477 134.857 84.8393 132.827 83.7313Z" stroke="black"/>
<path d="M94.2269 99.7378C95.4258 101.329 96.7424 100.59 98.0083 100.629C98.5302 105.644 99.9431 118.363 100.601 120.53C101.785 124.431 103.453 129.768 104.107 132.858C104.63 135.331 106.615 142.168 107.331 145.553" stroke="black"/>
<path d="M98.0084 100.629C98.1699 100.544 98.7044 100.338 99.2906 99.8965C100.995 98.6134 101.231 97.1797 100.982 96.0023" stroke="black"/>
<path d="M63.7528 96.6508L61.6908 95.3956C62.2393 93.7421 64.4002 92.5777 65.9762 91.8754C67.5522 91.1731 72.1451 91.0317 73.1506 90.9727C76.5006 90.6741 81.0128 89.9248 82.3884 89.6338C84.1079 89.2701 90.5053 87.3019 91.7211 87.0448C94.1284 86.5356 99.2543 86.9888 100.802 86.6615C102.04 86.3996 109.447 84.2179 113.683 83.0143C116.606 82.396 119.372 82.7334 123.249 82.3748C124.471 82.2618 128.125 81.6507 128.406 82.9753C128.614 83.9625 125.278 85.1745 123.386 85.5746C121.495 85.9746 117.917 85.1939 116.197 85.5576C114.478 85.9213 113.034 85.5845 110.867 86.6851C108.271 88.003 107.77 89.1853 106.753 90.1691C106.157 90.7463 105.235 92.3353 102.656 92.8808C100.765 93.2809 99.2926 93.2847 97.7794 93.6048C96.2663 93.9249 94.966 93.8923 93.9965 94.405L91.8694 96.2387C89.4458 97.5201 87.7865 96.9793 85.3354 97.6208C82.2714 98.4227 79.3957 98.4159 77.4894 97.8966C75.5832 97.3773 73.1936 95.4225 70.8027 95.1596C69.704 95.0387 66.8478 95.9961 63.7528 96.6508Z" stroke="black"/>
<path d="M131.697 144.396C130.208 146.187 131.863 146.309 132.618 146.2L135.588 144.957C135.588 144.957 138.638 143.236 140.373 142.1C141.495 141.366 141.881 140.517 140.797 139.858C139.606 139.132 138.203 139.484 137.265 140.144C135.866 141.127 133.559 142.157 131.697 144.396Z" stroke="black"/>
<path d="M71.097 243.472C70.133 243.727 68.3257 243.597 67.5006 245.155C66.6754 246.713 65.8852 251.954 65.4776 253.425C65.07 254.895 65.169 266.405 66.5714 271.336C67.4607 272.993 70.4917 273.978 72.3198 274.733C74.2883 275.547 79.8663 277.288 82.5849 278.251C85.684 279.03 90.072 280.021 92.1948 280.37C94.2419 280.705 97.0242 280.271 99.6035 279.725C102.183 279.179 103.919 278.044 105.512 278.783C106.787 279.374 110.756 280.646 112.308 281.189C115.34 281.932 121.397 282.711 124.873 282.837C129.217 282.994 134.125 282.417 135.704 282.237C137.283 282.057 142.97 280.917 144.989 280.273C147.85 279.36 149.929 278.997 151.946 278.34C154.635 277.464 159.632 274.931 162.295 274.614C165.625 274.217 169.04 273.477 171.58 272.65C174.269 271.773 178.288 269.539 180.508 268.147C182.285 267.033 183.976 264.441 184.998 263.046L189.727 253.128C191.497 248.756 191.26 243.732 191.3 241.879C191.339 240.025 191.836 233.525 192.152 232.319C192.748 230.04 193.152 226.009 193.566 223.717C193.979 221.426 193.123 217.662 193.542 215.112C193.778 213.678 194.728 211.157 195.297 209.821C195.657 208.975 197.068 206.502 197.473 205.67C197.724 205.156 198.475 203.613 199.476 203.248C199.805 203.128 201.461 203.289 202.288 204.652C203.643 206.884 203.159 208.772 203.456 209.325C203.752 209.877 204.252 210.54 204.252 210.54" stroke="black"/>
<path d="M78.7807 58.9529C78.4268 57.2801 78.3615 55.721 78.5848 54.2756C78.8642 52.8184 79.2857 51.4767 79.8492 50.2507C80.4689 49.0127 81.1403 47.8804 81.8635 46.8536C82.6311 45.7591 83.3261 44.7383 83.9486 43.791C84.6273 42.8319 85.1372 41.9084 85.4784 41.0207C85.8758 40.121 85.986 39.253 85.8091 38.4166C85.5378 37.1341 84.7689 36.2773 83.5023 35.8461C82.2919 35.4031 80.8991 35.3481 79.324 35.6813C77.5238 36.0621 75.9423 36.9209 74.5795 38.2578C73.2167 39.5946 72.274 41.2504 71.7513 43.2252L55.1567 38.9581C56.4452 34.4912 58.9898 30.545 62.7907 27.1195C66.5915 23.694 71.8672 21.2673 78.6178 19.8394C83.0619 18.8994 87.1295 18.6798 90.8205 19.1807C94.556 19.614 97.6899 20.8153 100.222 22.7846C102.743 24.6982 104.375 27.4115 105.118 30.9244C105.566 33.0434 105.623 34.9827 105.29 36.7426C105.014 38.4906 104.471 40.091 103.661 41.5438C102.896 42.929 102.058 44.2424 101.145 45.4841C100.232 46.7257 99.3355 47.9057 98.4554 49.024C97.6197 50.0746 96.9587 51.1174 96.4724 52.1523C96.0423 53.1754 95.9393 54.2167 96.1634 55.2761L78.7807 58.9529ZM92.3904 80.3669C89.1276 81.057 86.2491 80.6464 83.7549 79.1351C81.2489 77.5679 79.7069 75.4182 79.1289 72.6859C78.5392 69.8979 79.0845 67.3358 80.7649 64.9996C82.4454 62.6635 84.9169 61.1503 88.1797 60.4602C91.4988 59.7581 94.3714 60.1409 96.7976 61.6084C99.28 63.064 100.816 65.1858 101.406 67.9739C101.984 70.7062 101.444 73.2961 99.7875 75.7438C98.1751 78.1238 95.7095 79.6648 92.3904 80.3669Z" fill="#E1E4E4"/>
</svg>
