<svg width="404" height="525" viewBox="0 0 404 525" fill="none" xmlns="http://www.w3.org/2000/svg">
<path d="M149.139 40.4082C150.529 43.8185 150.676 44.254 152.45 46.9732C152.45 46.9732 145.836 45.2114 141.578 44.6003C136.132 43.8187 131.619 43.2715 126.145 43.8668C121.58 44.3633 116.298 47.2314 116.298 47.2314C116.298 47.2314 118.345 50.7029 119.886 53.0311C122.664 57.2283 127.577 62.7387 127.577 62.7387C127.577 62.7387 123.509 65.3142 121.223 67.8862C118.952 70.4406 115.603 76.2424 115.603 76.2424L110.27 64.7906C110.27 64.7906 108.212 70.9035 106.299 74.7823C104.196 79.0446 99.9242 82.4885 97.3621 86.095L97.2867 86.2011C94.7719 89.7408 93.3625 91.7246 92.1434 94.7698C90.9123 97.8452 89.7303 100.434 88.8933 104.676C87.707 110.687 88.7543 114.091 89.0661 118.937C89.0661 118.937 86.6089 119.581 84.8634 120.533C82.8338 121.64 81.8062 122.709 81.3527 124.978C81.0184 126.651 81.2178 127.732 81.8496 129.313C82.3206 130.491 83.2205 131.714 83.2205 131.714C83.2205 131.714 82.1065 132.823 81.2648 133.777C80.3771 134.782 80.4333 135.526 80.1539 136.838C79.7688 138.645 79.7586 140.319 80.6922 141.534C81.6259 142.75 83.4647 143.403 83.4647 143.403C83.4647 143.403 82.0467 144.323 81.8267 145.062C81.0356 147.719 81.881 148.717 81.881 148.717L74.616 145.917C74.616 145.917 77.1603 151.108 78.2168 155.011C79.2732 158.913 80.3459 167.208 80.3459 167.208L81.7953 179.853C81.9196 180.937 83.6536 186.97 86.9626 189.86C91.0238 193.406 93.5186 196.04 97.8161 198.46C97.8161 198.46 90.4511 195.82 85.7387 195.131C82.3278 194.633 76.8787 194.351 76.8787 194.351C76.8787 194.351 78.9122 198.259 80.1473 200.555C82.4434 204.822 83.6789 208.558 85.8002 211.602C87.4409 213.957 88.903 215.878 91.233 217.55C95.6134 220.692 101.518 224.386 101.518 224.386C101.518 224.386 96.6305 224.152 93.4621 224.243C90.3449 224.332 86.3335 225.82 86.3335 225.82C88.1347 228.781 91.2937 234.021 92.1805 235.38C92.623 236.059 96.3645 240.011 98.7357 241.561C101.107 243.111 110.531 248.807 115.276 248.754C116.371 248.742 119.727 249.325 119.727 249.325L121.343 263.415C121.674 266.305 123.808 268.981 123.808 268.981C123.808 268.981 127.065 271.891 128.437 274.292C128.437 274.292 128.945 281.921 129.845 286.575C130.623 290.598 131.414 292.98 133.446 295.669C135.62 298.547 137.312 299.138 139.641 301.892C140.486 302.89 141.175 305.256 140.983 307.226C140.79 309.196 140.007 311.703 139.524 313.624C138.822 316.415 138.699 317.567 138.105 320.383C137.493 323.288 138.242 324.761 136.41 327.908C135.32 329.78 134.038 330 131.97 330.631C130.342 331.128 128.615 331.401 126.923 331.23C125.032 331.038 122.75 329.894 122.75 329.894C122.75 329.894 119.173 328.697 117.093 328.367C113.416 327.785 112.028 327.928 108.328 328.308L108.315 328.309C104.186 328.734 102.144 330.577 98.0653 331.356C93.7462 332.18 90.4104 331.531 87.1653 331.916C84.6306 332.216 83.5092 332.008 81.0355 332.642C78.4682 333.301 75.9314 334.252 73.712 335.708C71.0957 337.423 70.1268 339.712 68.2449 342.215C66.0396 345.148 63.9415 349.316 63.9415 349.316C63.9415 349.316 59.7438 351.48 57.8247 353.337C55.4954 355.591 53.4807 360.077 53.4807 360.077C53.4807 360.077 50.0281 361.956 49.0003 362.44C45.8794 363.908 43.6039 366.375 42.6042 367.226C41.6045 368.077 39.6893 370.981 39.1771 372.393C38.3438 374.689 42.1684 379.362 43.2208 382.166C44.2732 384.971 44.3252 385.938 44.9646 387.819C45.6186 389.742 46.6687 390.312 47.9856 391.855C49.3026 393.398 52.8509 396.038 55.4991 396.823L55.6978 396.882C58.6969 397.77 62.6792 398.949 65.4537 400.769C68.9742 403.079 70.6825 404.538 73.2157 407.905C75.4795 410.914 75.0925 413.549 77.8153 416.148C80.3462 418.564 81.8934 419.907 85.2873 420.755C87.8212 421.388 89.2657 420.714 91.6241 421.835C93.5256 422.738 95.2006 424.34 96.8085 425.614C98.4164 426.888 100.204 427.048 102.188 427.906C105.269 429.238 107.887 428.738 110.215 430.982C112.473 433.158 111.166 435.483 113.526 437.547C115.154 438.97 117.838 439.965 119.987 439.71C122.872 439.368 123.549 438.861 126.56 439.664C128.773 440.253 129.481 440.865 131.184 442.337L131.26 442.402C133.707 444.515 134.431 446.954 136.456 449.476C138.994 452.635 141.702 455.817 144.467 458.779C149.514 464.185 151.126 465.781 156.456 470.907C162.019 476.257 163.56 478.026 169.845 482.502C176.19 487.02 179.688 488.658 187.16 493.265C191.941 496.213 196.476 498.02 200.289 499.399C204.102 500.777 207.79 501.073 211.52 501.729C213.664 502.106 218.084 502.66 219.063 503.764C220.043 504.869 223.597 505.057 223.597 505.057L228.284 504.502C228.284 504.502 232.311 503.761 234.651 502.648C237.291 501.393 238.266 499.847 240.727 498.266L240.807 498.215C244.354 495.936 246.499 494.558 250.326 492.734C254.586 490.703 257.027 489.872 261.533 488.476C265.754 487.167 269.415 487.339 273.709 486.299C276.771 485.559 281.476 483.914 281.476 483.914C281.476 483.914 286.276 482.57 289.687 482.208C294.139 481.736 296.196 482.271 300.67 482.371C307.201 482.516 311.354 483.096 317.865 482.529C323.797 482.012 327.486 481.618 333.369 480.691C338.989 479.805 343.352 478.831 348.626 476.685C352.804 474.984 355.053 472.178 357.781 470.473C362.361 467.611 364.856 465.24 366.896 463.899C368.935 462.559 371.853 460.382 372.848 458.433C373.842 456.484 378.529 448.483 380.69 443.955C382.851 439.426 380.763 433.713 381.753 427.716C382.668 422.168 383.355 419.041 385.268 413.751C387.093 408.705 389.377 406.202 390.753 401.016C392.341 395.03 391.177 385.586 391.177 385.586C391.177 385.586 382.468 383.718 377.173 381.388C373.103 379.597 371.67 378.053 367.774 375.911C361.302 372.353 357.553 370.549 350.749 367.676C342.756 364.301 338.039 362.994 329.8 360.273C322.153 357.748 317.197 355.542 310.097 354.187C306.732 353.544 303.66 354.04 300.238 354.257C294.139 354.643 285.218 357.136 285.218 357.136C285.218 357.136 282.754 356.973 280.767 356.566C276.53 355.698 274.415 353.725 270.688 351.535C267.23 349.504 266.16 348.838 263.133 346.206C259.691 343.213 257.002 341.129 254.443 337.349C252.731 334.821 250.369 330.509 250.369 330.509C250.369 330.509 251.508 327.688 251.303 322.708C251.097 317.728 250.338 311.105 250.881 306.28C251.012 305.123 252.106 297.834 253.121 293.93C254.135 290.026 253.917 281.752 253.917 281.752C253.917 281.752 260.802 278.836 265.721 276.324C270.653 273.805 274.024 272.363 278.4 268.962C283.804 264.761 286.129 262.679 289.417 256.67C292.258 251.477 294.694 242.129 294.694 242.129L290.202 241.197L280.661 240.864C280.661 240.864 284.782 239.151 287.181 237.161C290.817 234.145 293.43 231.017 295.881 226.975C299.512 220.988 300.666 214.678 303.227 208.161C305.041 203.544 306.518 198.616 306.518 198.616L300.554 200.788L285.422 205.878C285.422 205.878 290.029 202.801 292.456 200.284C295.657 196.962 299.27 189.589 299.27 189.589C299.27 189.589 302.463 182.78 304.158 178.024C306.846 170.48 308.412 157.745 308.412 157.745L299.77 162.065L302.004 159.237C302.004 159.237 303.483 156.611 303.671 154.645C303.92 152.037 302.979 149.673 301.4 147.591C299.635 145.263 296.299 144.534 296.299 144.534C297.894 142.514 298.981 138.891 299.271 135.393C299.732 129.846 297.878 120.056 296.745 113.355C295.611 106.654 293.078 97.3117 289.809 91.108C287.772 87.2436 282.644 82.8029 282.644 82.8029C280.516 85.4964 278.075 89.2208 275.83 93.4978C273.346 98.2288 271.549 102.916 270.387 106.593L269.617 93.502C269.617 93.502 268.255 81.4197 265.578 74.2069C263.469 68.5251 261.816 65.6524 258.194 60.8012C255.413 57.0762 250.225 51.859 250.225 51.859L247.92 57.2589C246.809 60.3201 245.761 63.0545 244.711 67.5263C243.992 70.5899 243.691 73.5062 243.057 75.4124C243.057 75.4124 241.661 68.7741 240.011 64.7879C238.447 61.0067 237.181 59.0271 234.997 55.6128L234.927 55.5037C231.6 50.3011 229.535 47.8705 224.824 43.8851C219.934 39.7481 210.406 36.0737 210.406 36.0737C210.456 38.6311 210.129 41.4965 210.041 45.6378C209.935 50.5421 210.29 55.2512 210.048 58.4535C210.048 58.4535 208.706 53.1197 206.85 49.678C204.993 46.2362 202.054 42.9228 200.003 40.9689C197.268 38.3637 194.364 35.7785 190.315 32.963C186.265 30.1475 173.732 22.845 173.732 22.845C173.799 26.6209 173.729 29.9104 174.088 34.8868C174.436 39.7034 175.082 43.5574 175.496 47.1702C175.496 47.1702 171.145 41.0947 167.805 37.4627C164.465 33.8307 160.99 31.322 155.828 28.6295C151.95 26.6066 148.722 25.0779 145.431 24.0033C145.431 24.0033 146.569 29.3586 147.063 31.8659C147.675 34.9807 149.139 40.4082 149.139 40.4082Z" fill="#878EDC"/>
<path d="M245.441 471.952C240.489 474.989 234.659 482.216 234.659 482.216C234.659 482.216 241.23 478.351 246.034 477.123C248.845 476.405 252.571 474.851 255.451 474.509C258.906 474.099 258.694 474.472 262.172 474.461C267.947 474.443 271.266 476.252 276.775 477.972C282.228 479.674 284.208 481.189 289.904 481.657C293.369 481.943 295.455 482.379 298.922 482.086C308.239 481.299 312.737 482.595 322.035 481.592C332.191 480.497 339.857 481.156 349.149 476.88C355.284 474.056 357.453 470.914 362.965 467.004C367.111 464.063 369.877 462.173 373.179 458.304C376.427 454.5 378.489 451.023 380.02 446.26C381.662 441.156 380.911 439.402 381.615 434.089C382.568 426.886 381.477 423.355 384.091 416.572C385.89 411.903 388.466 409.31 390.195 404.615C392.485 398.392 391.764 385.707 391.764 385.707L384.052 383.626C384.052 383.626 374.78 380.981 367.466 375.857C361.807 371.894 357.987 370.674 351.617 368.001C342.533 364.19 336.891 363.564 327.572 360.368C320.833 358.057 310.418 354.164 310.418 354.164C310.418 354.164 317.208 358.38 318.723 361.417C320.239 364.454 321.782 368.543 322.121 371.498C322.46 374.454 323.387 380.807 322.425 387.189C321.338 394.397 316.431 406.621 316.431 406.621C316.431 406.621 314.695 418.726 312.649 425.791C310.08 434.662 309.288 438.89 303.79 446.312C298.12 453.966 290.313 459.143 283.193 462.234C276.073 465.324 270.815 465.527 262.885 467.637C262.885 467.637 251.956 467.957 245.441 471.952Z" fill="#3F54C0"/>
<path d="M102.683 224.984C99.6331 223.88 96.8247 223.806 93.1014 224.289C90.3965 224.64 88.3351 225.219 86.3332 225.822C87.7974 227.968 89.8275 232.074 90.8916 233.706C92.2218 235.745 95.9223 239.333 99.0968 241.52C102.271 243.707 106.2 246.169 108.496 246.997C110.021 247.547 112.669 248.331 114.916 248.799C115.484 248.917 118.364 249.124 119.325 249.01" stroke="black"/>
<path d="M110.669 227.695C108.034 227.031 103.012 225.307 101.116 224.067C98.7454 222.518 91.6753 218.229 87.9746 214.64C86.0883 212.81 83.107 206.184 80.6318 201.595L76.8776 194.351C80.4321 194.54 87.0861 195.411 87.9846 195.597C90.2309 196.063 95.3519 197.165 97.413 198.141" stroke="black"/>
<path d="M109.628 205.848C107.377 204.284 102.331 200.854 100.146 199.649C97.4147 198.141 92.9544 195.254 89.0144 191.814C84.9532 188.267 81.8908 183.87 81.1454 177.367C80.3586 170.503 79.4061 162.193 78.8678 157.497C78.4371 153.74 75.8542 148.211 74.6166 145.917L81.8816 148.717" stroke="black"/>
<path d="M83.0611 143.084C82.3025 143.907 81.8673 145.423 81.6308 146.55C81.4813 147.262 81.9621 149.44 82.8075 150.438C83.6528 151.436 85.3021 153.072 86.0647 153.348C86.6747 153.568 88.3248 153.934 89.0736 154.089L90.5572 154.28" stroke="black"/>
<path d="M83.5829 131.672C83.5829 131.672 81.5023 132.651 80.9468 134.181C80.3913 135.712 80.0429 139.049 80.0429 139.049C80.1257 139.771 80.7347 141.896 81.9406 142.852C83.1126 143.781 87.3493 142.211 87.3493 142.211C87.3493 142.211 90.9136 141.422 92.0781 142.016C93.2427 142.61 93.3117 143.213 93.7275 143.651" stroke="black"/>
<path d="M92.9625 121.038C92.9625 121.038 90.634 119.347 89.1083 119.299C86.6345 119.22 83.9166 120.769 83.1442 121.47C82.3719 122.172 81.6757 123.39 81.3535 124.978C80.8599 127.411 81.5313 129.718 82.7786 131.034C84.026 132.351 86.6743 133.136 87.756 133.008C88.6214 132.905 90.8671 132.517 92.0414 132.134" stroke="black"/>
<path d="M110.296 147.912C110.366 145.34 110.715 142.003 109.704 139.56C108.959 137.759 107.321 134.716 106.352 132.633L102.627 122.456C101.927 124.858 100.96 127.048 100.127 129.343C99.7755 130.311 96.5454 136.359 95.9485 137.529C95.3516 138.698 91.546 150.135 90.837 153.515C90.538 154.94 90.9881 161.608 93.0491 166.435C94.7211 170.351 96.4427 173.722 98.1334 175.719C99.4861 177.316 103.779 181.397 105.216 183.302" stroke="black"/>
<path d="M128.431 98.8907C126.23 99.884 120.238 103.304 119.151 104.019C115.412 106.476 111.839 110.379 108.843 112.931L104.333 118.226" stroke="black"/>
<path d="M97.7384 134.021C96.1018 135.679 93.4336 135.397 92.566 133.535C91.5965 131.453 93.1093 128.711 93.8599 125.692C94.2326 124.193 91.4366 120.487 93.9898 117.254C96.4306 114.164 99.4156 110.386 100.734 109.131C101.788 108.127 107.222 104.09 109.889 102.919C109.889 102.919 114.984 100.483 117.615 100.171C123.023 99.5308 128.071 98.9316 128.071 98.9316L134.201 98.2048C134.034 99.9335 133.485 104.075 132.63 106.813C131.56 110.236 129.922 112.629 129.172 114.914C127.547 119.867 125.673 122.652 123.398 125.119C121.275 127.42 119.175 129.729 117.806 130.542C114.727 132.371 111.966 133.798 110.524 133.969C109.659 134.071 107.64 134.311 106.919 134.396" stroke="black"/>
<path d="M116.935 100.618C116.935 100.618 118.899 92.7908 118.453 88.3537C117.964 83.4977 117.284 80.4408 115.561 75.8801C114.562 73.2359 112.611 69.2724 112.611 69.2724L110.269 64.7896C109.639 67.7938 106.576 74.0159 105.063 76.7586C103.937 78.8001 96.4041 87.306 95.4466 88.5181C94.4891 89.7302 89.7553 99.4461 89.2826 101.699C88.8099 103.952 88.4029 113.155 88.6514 115.323C88.8502 117.057 89.0655 118.936 89.1484 119.658" stroke="black"/>
<path d="M148.345 74.9236C145.35 74.3022 138.527 75.3554 133.922 76.6337C129.883 77.755 122.243 83.1451 118.442 85.0604C121.695 86.8718 129.212 89.9342 131.488 90.4714C135.62 91.4463 141.277 92.973 144.966 93.2677C147.392 93.4616 157.834 93.9388 158.916 93.8106C159.998 93.6823 163.789 92.7446 165.684 92.2757" stroke="black"/>
<path d="M152.851 47.2917C152.26 46.3853 150.787 43.9478 149.623 41.4492C148.46 38.9507 146.611 28.9899 145.832 24.3218C149.044 25.7719 155.792 28.1388 158.158 29.818C162.136 32.642 166.444 35.793 168.207 37.7811C171.145 41.0946 174.083 44.4081 175.981 48.2111" stroke="black"/>
<path d="M120.5 45.6339C121.211 46.5261 123.827 47.876 126.045 49.3707C128.817 51.2391 137.206 54.2726 141.42 55.97C145.635 57.6674 157.475 62.1226 159.846 63.6724C162.216 65.2223 171.131 69.6582 172.337 70.6137C173.301 71.3782 176.648 73.1541 178.201 73.9465" stroke="black"/>
<path d="M178.748 59.6008C174.169 56.8481 164.48 51.1857 162.362 50.5581C160.243 49.9304 151.282 45.9914 143.783 44.7048C136.988 43.5391 128.668 43.5673 126.144 43.8666C123.62 44.1658 118.95 45.9401 116.296 47.2312C118.781 50.8426 121.822 56.7833 126.329 61.4215C132.207 67.4719 141.48 72.4417 146.457 74.4148C151.435 76.388 159.504 79.8255 163.275 80.8431C165.685 81.4933 174.548 83.5347 179.359 84.0627" stroke="black"/>
<path d="M174.076 31.5922C174.551 33.6109 176.808 37.5667 177.872 39.1982C179.202 41.2376 185.244 49.3097 186.131 50.6693C187.017 52.0289 194.986 60.9711 197.038 62.925C197.702 63.5579 200.766 66.7551 202.388 68.1496" stroke="black"/>
<path d="M207.332 82.5782C206.467 83.5352 205.432 85.0393 205.264 86.8514C205.068 88.955 205.493 90.9744 206.245 92.2278C206.998 93.4813 210.551 94.72 212.027 94.8381C213.871 94.9856 215.432 94.8989 217.796 94.1541C219.129 93.734 220.515 92.367 221.153 91.5589L222.069 89.9855" stroke="black"/>
<path d="M210.889 68.9714C209.682 68.016 208.542 67.8501 206.798 68.3579C204.676 68.9757 203.378 70.4113 202.483 72.1653C201.821 73.4626 201.496 76.3105 202.424 78.0312C203.114 79.3094 205.404 81.7061 206.929 82.2575C208.073 82.6711 210.999 82.4073 212.018 82.0202C213.419 81.488 215.047 80.8068 215.5 80.509" stroke="black"/>
<path d="M158.526 96.786C159.727 96.6435 163.069 96.2473 166.819 95.8027C171.506 95.2469 188.174 92.538 191.255 92.1727C194.139 91.8306 201.392 91.3374 204.679 91.3139" stroke="black"/>
<path d="M202.867 78.7125C202.867 78.7125 197.678 79.0408 191.731 80.3989C187.797 81.2973 184.134 82.0374 180.4 83.5733C176.158 85.318 173.888 86.6285 170.079 89.1911C166.156 91.8311 158.524 96.7864 158.524 96.7864C159.771 98.1033 164.153 101.738 167.728 103.751C172.026 106.171 177.683 107.698 181.856 109.034C186.741 110.597 191.202 110.855 198.857 110.68C202.848 110.589 211.666 109.771 215.165 109.479" stroke="black"/>
<path d="M210.408 36.0736C212.672 37.7582 216.201 41.9781 217.934 44.336C219.008 45.7983 224.512 55.325 225.193 56.6579C226.607 59.4198 230.846 67.7057 231.815 69.7878C232.597 71.4665 236.054 78.0737 237.107 80.8784C238.079 83.4686 240.749 90.3335 240.873 91.4174" stroke="black"/>
<path d="M228.388 97.2917C225.787 94.7927 221.708 90.0277 219.089 86.3102C216.907 83.2126 212.84 76.4317 211.208 68.5692C210.558 65.437 209.69 55.3224 209.859 50.4199L210.407 36.0737C214.539 37.0485 224.645 42.9543 227.638 46.1147C231.381 50.0653 235.371 56.1835 236.701 58.2229C239.805 62.9815 242.436 69.9932 243.14 76.1349" stroke="black"/>
<path d="M212.439 98.4496C216.062 99.2406 224.092 103.149 226.65 104.455C230.143 106.237 240.522 112.078 243.479 114.177C247.458 117.001 253.653 123.224 256.911 126.134C259.516 128.461 261.137 131.125 262.787 132.761" stroke="black"/>
<path d="M239.878 136.943C235.941 134.48 227.615 128.803 225.974 127.24C223.923 125.286 220.65 121.211 217.715 115.769C215.859 112.327 212.814 101.702 212.358 97.7285C216.496 96.6276 226.029 96.4735 230.233 97.4398C234.437 98.4061 242.523 100.499 245.762 102.19" stroke="black"/>
<path d="M250.349 52.9432C250.708 56.0743 251.517 63.1312 251.881 66.3104C252.337 70.2844 255.046 87.5401 255.655 89.665C256.264 91.7899 259.139 100.688 260.072 102.69C261.041 104.772 265.558 112.293 267.734 115.331" stroke="black"/>
<path d="M250.266 52.2191C251.874 53.4932 254.762 56.1229 256.42 58.0808C258.111 60.0775 261.256 65.1973 263.071 68.2778C264.591 70.857 266.063 75.2468 266.63 77.0104C267.085 78.4213 268.499 83.7464 268.747 85.9141C268.996 88.0817 269.741 94.5847 269.824 95.3072C269.89 95.8853 270.13 102.228 270.345 106.231" stroke="black"/>
<path d="M250.627 52.1772C248.032 55.0481 243.878 69.8218 243.098 75.7732C242.673 79.021 243.3 87.101 243.921 92.5202C244.542 97.9393 245.968 103.995 248.226 107.756C250.484 111.516 255.03 116.104 258.329 119.374C261.628 122.645 264.552 125.838 267.019 128.231" stroke="black"/>
<path d="M288.846 156.037C288.629 155.208 287.918 154.316 288.072 152.467C288.167 151.32 288.503 149.852 289.058 148.322C289.48 147.16 290.252 145.983 290.89 145.175C291.889 144.324 293.692 144.11 294.815 144.343C296.236 144.638 297.062 144.809 298.226 145.403C299.391 145.998 301.318 146.868 302.246 148.589C303.174 150.31 303.7 151.712 303.783 152.435C303.866 153.157 303.878 156.451 303.281 157.621C302.684 158.79 302.087 159.959 301.088 160.81C300.212 161.556 298.009 162.64 296.927 162.768C295.738 162.909 293.558 162.069 292.795 161.793" stroke="black"/>
<path d="M283.847 169.813C285.677 170.475 288.053 169.314 289.214 168.81C291.013 167.498 292.849 165.45 292.92 162.878C292.671 160.711 292.422 158.543 290.815 157.269C289.207 155.994 287.279 155.124 285.477 155.338C284.388 155.467 282.994 155.999 281.995 156.85C281.995 156.85 278.762 160.529 278.526 161.655C278.29 162.782 278.177 164.992 279.508 167.032C280.325 168.285 281.559 168.986 283.847 169.813Z" stroke="black"/>
<path d="M230.74 136.927C233.471 138.434 239.413 140.632 241.54 141.871C244.673 143.697 252.742 147.135 255.834 148.599C258.925 150.063 266.504 154.098 268.324 155.54C270.334 157.133 276.291 160.211 278.569 162.016" stroke="black"/>
<path d="M281.956 156.487C280.783 153.697 278.094 148.303 276.386 146.162C274.252 143.486 269.872 140.343 265.74 139.368C263.975 138.952 257.795 137.015 254.106 136.72C252.262 136.572 245.167 136.315 241.321 136.771L230.74 136.927C232.596 140.369 235.783 145.85 237.072 147.528C237.771 148.438 242.115 156.451 246.135 159.636C250.154 162.821 257.709 168.151 260.038 169.339C262.368 170.528 267.706 174.089 270.921 175.006C275.455 176.3 279.264 176.581 281.39 177.061" stroke="black"/>
<path d="M283.089 83.4838L283.084 93.0052C283.006 100.826 284.085 114.491 284.333 116.659C284.789 120.633 284.748 127.718 284.713 132.726" stroke="black"/>
<path d="M268.026 140.196C267.472 138.553 266.448 134.085 266.783 129.358C267.119 124.631 267.336 117.787 268.248 113.438C269.43 107.805 272.486 100.894 274.081 97.3669C275.83 93.4976 278.371 86.9712 283.088 83.4825C286.262 85.6694 288.498 87.8944 290.696 92.4674C293.86 99.0499 296.118 109.768 296.851 112.976C297.585 116.185 299.897 131.291 299.396 136.477C299.119 139.331 297.27 143.442 296.742 145.214" stroke="black"/>
<path d="M277.056 187.096C277.889 184.8 279.555 180.208 281.47 177.784C285.226 173.029 287.576 170.469 289.574 168.767C291.141 167.433 295.186 164.734 299.45 162.47C303.345 160.402 304.916 159.137 308.05 157.788C306.768 161.48 305.995 169.823 305.616 171.626C305.238 173.428 303.184 182.069 300.144 187.654C298.168 191.285 296.965 194.989 294.772 198.178C292.58 201.368 289.311 202.61 287.183 205.303" stroke="black"/>
<path d="M278.194 212.959C279.471 211.343 281.539 207.07 287.184 205.302C291.7 203.887 301.743 200.524 306.199 199.019C305.274 201.57 303.264 207.204 302.63 209.329C301.838 211.987 298.949 221.85 297.713 223.827C296.725 225.409 293.494 231.651 289.54 235.416C285.585 239.18 282.104 240.692 282.104 240.692" stroke="black"/>
<path d="M272.368 241.847C274.531 241.591 278.57 241.112 281.743 240.736C284.916 240.359 291.819 241.494 294.334 242.172C294.647 243.844 292.041 250.866 290.611 254.332C289.222 257.697 286.113 262.921 282.118 266.324C278.122 269.727 272.601 272.579 269.841 274.005C267.633 275.145 258.546 279.616 254.278 281.709" stroke="black"/>
<path d="M275.627 190.561C275.779 191.885 276.19 195.474 276.621 199.231C277.159 203.928 277.697 208.624 277.987 211.153C278.277 213.682 275.446 217.68 274.17 219.296C273.362 220.318 271.218 223.308 269.424 225.717" stroke="black"/>
<path d="M263.783 217.965C264.267 219.006 265.598 221.046 268.175 224.402C270.753 227.758 273.803 228.861 273.508 235.854C273.213 242.846 270.146 247.97 269.59 249.501C269.146 250.725 263.826 258.729 261.221 262.577L254.046 273.315" stroke="black"/>
<path d="M259.884 225.385C260.022 226.589 260.356 229.503 260.588 231.526C260.878 234.055 261.416 238.752 261.109 242.45C260.947 244.403 259.733 249.571 256.943 253.93C254.711 257.417 252.364 258.623 252.031 258.906" stroke="black"/>
<path d="M241.587 155.048C241.42 156.777 241.188 159.088 241.251 161.679C241.326 164.804 242.037 168.543 242.162 169.627C242.286 170.711 242.824 175.408 244.154 177.447C245.485 179.487 246.247 179.762 248.216 180.994C249.79 181.979 252.135 182.238 253.11 182.244" stroke="black"/>
<path d="M236.1 145.446C235.286 145.786 233.548 146.774 233.103 147.998C232.659 149.222 232.471 154.176 233.139 157.881C233.595 161.855 236.38 167.017 237.586 167.973C238.792 168.928 240.797 169.423 241.8 169.67" stroke="black"/>
<path d="M124.867 99.6784C124.544 98.9843 126.044 96.5343 127.255 95.0011C128.531 93.385 130.317 91.9527 131.487 90.4713" stroke="black"/>
<path d="M152.066 116.96C151.654 117.619 149.852 118.687 145.936 117.687C142.021 116.686 138.204 115.064 136.785 114.377C135.367 113.691 131.962 110.555 131.962 110.555L131.518 109.875" stroke="black"/>
<path d="M141.637 92.9292C141.817 94.4947 142.424 99.7934 142.424 99.7934C142.424 99.7934 143.413 105.942 145.706 109.291C147.747 112.273 149.613 114.687 150.417 115.324C151.221 115.961 154.035 118.191 156.725 119.337C159.415 120.482 160.136 120.397 161.939 120.183C163.381 120.012 165.392 118.431 165.698 117.907" stroke="black"/>
<path d="M172.749 106.085C173.677 107.806 174.572 111.408 173.535 112.949C171.662 115.735 168.624 117.926 166.419 117.821C164.214 117.716 160.633 116.511 158.947 113.214C157.534 110.452 155.275 106.692 154.944 103.802C154.654 101.273 154.074 96.2152 153.785 93.6863" stroke="black"/>
<path d="M251.396 227.854C252.921 228.406 255.439 228.203 257.206 227.532C258.607 226.999 260.91 224.382 261.798 222.959C263.034 220.982 263.979 216.476 264.327 213.139C264.676 209.802 267.299 203.998 268.535 202.02C269.398 200.639 273.277 194.501 275.309 190.964C276.663 188.606 277.418 187.052 277.447 184.119C277.462 182.664 276.909 179.423 275.662 178.106L273.167 175.472" stroke="black"/>
<path d="M250.613 211.471C250.548 211.967 252.64 211.304 256.257 209.703C259.875 208.103 261.724 203.196 262.599 201.261C263.649 198.94 265.82 194.288 267.25 190.823C268.203 188.513 270.158 185.131 269.543 182.129C269.093 179.93 268.593 178.092 267.84 176.838C267.84 176.838 266.073 173.375 262.809 171.209C261.629 170.427 258.481 168.955 257.11 169.32C254.628 169.981 253.303 171.025 252.435 173.17C251.878 174.547 252.087 176.508 252.087 176.508" stroke="black"/>
<path d="M347.242 372.12C348.832 372.175 351.758 372.115 353.258 373.604C354.906 375.239 355.794 376.599 355.044 379.617C354.293 382.635 350.616 385.635 348.093 385.934C344.486 386.362 339.542 386.689 336.697 382.158C334.13 378.069 334.094 372.215 336.01 369.789C337.927 367.364 344.01 367.16 348.991 368.25C354.395 369.433 359.606 372.414 360.843 376C361.936 379.166 360.477 385.564 359.2 387.18C357.284 389.605 354.319 392.579 349.24 392.755C344.872 392.907 334.64 389.726 332.228 387.815C329.816 385.904 324.255 378.653 324.165 374.856C324.07 370.839 324.419 367.502 327.013 364.631C329.089 362.334 332.76 361.63 334.337 361.565" stroke="black"/>
<path d="M319.731 466.929C320.194 465.654 320.085 463.845 319.193 462.233C317.657 459.459 313.664 458.64 311.484 458.752C309.668 458.845 306.921 460.391 305.242 461.689C303.803 462.802 302.772 465.644 302.341 468.258C301.985 470.413 303.281 473.273 304.889 474.547C306.497 475.821 307.703 476.777 310.712 477.519C313.72 478.261 318.089 478.11 318.089 478.11C318.089 478.11 324.815 476.213 327.327 472.619C328.26 471.285 329.911 466.01 328.692 462.205C327.333 457.964 321.805 453.135 321.805 453.135C321.805 453.135 315.914 448.059 311.324 447.786C307.602 447.564 305.152 448.151 302.753 449.534C301.177 450.442 297.315 453.109 296.08 455.086C294.844 457.063 293.024 463.504 293.314 466.033C293.604 468.562 294.905 473.535 295.431 474.937C295.958 476.339 298.577 480.057 300.906 481.245C302.769 482.196 306.748 482.261 307.603 482.282" stroke="black"/>
<path d="M234.856 482.118C236.909 480.898 241.584 478.317 243.859 477.755C246.702 477.051 253.263 473.71 257.714 474.281C262.165 474.852 272.107 475.504 275.158 476.607C278.208 477.71 283.989 480.32 285.154 480.915C286.085 481.39 288.324 482.003 289.327 482.251" stroke="black"/>
<path d="M313.361 424.106C313.046 425.608 312.201 429.297 311.346 432.035C310.276 435.458 305.95 444.148 303.225 447.279C299.673 451.362 293.68 456.467 290.642 458.658C287.604 460.849 281.917 462.256 277.035 464.299C272.153 466.343 264.261 467.645 259.574 468.201C255.69 468.661 245.719 471.674 242.722 474.227C239.725 476.779 231.9 485.03 229.749 488.581C228.028 491.422 223.592 496.513 221.09 499.129L217.496 502.85" stroke="black"/>
<path d="M190.675 402.768C196.137 405.782 223.659 413.138 227.874 414.836C232.089 416.533 259.724 421.679 267.544 422.949C275.365 424.219 284.864 424.191 292.602 424.739C298.792 425.176 308.808 424.77 313.042 424.512C314.06 421.706 314.294 416.308 314.294 416.308C314.294 416.308 316.227 407.656 317.657 404.191C319.087 400.726 320.476 396.899 321.143 393.158C321.811 389.417 323.187 382.297 322.732 378.323C322.367 375.143 322.542 370.289 321.448 367.123C320.354 363.957 317.421 360.283 314.561 358.053C312.258 356.257 308.253 354.04 308.253 354.04" stroke="black"/>
<path d="M131.747 443.444C133.817 443.443 139.377 443.052 142.327 443.288C144.871 443.492 152.877 444.633 159.364 445.246M159.364 445.246C162.282 445.522 164.756 445.781 166.025 445.971C170.116 446.585 189.321 448.336 193.772 448.907C198.223 449.477 222.033 449.95 225.042 450.692C228.051 451.434 230.977 451.453 233.069 453.768C233.799 454.576 232.207 458.997 229.849 460.741C226.148 463.478 223.01 464.848 218.724 465.722C214.439 466.596 208.268 466.962 204.579 466.667C200.891 466.372 191.699 462.701 189.647 460.747C187.596 458.794 179.225 454.862 177.157 453.806C174.827 452.618 170.008 449.893 167.84 449.052L159.364 445.246Z" stroke="black"/>
<path d="M101.78 360.575C102.639 361.694 104.992 364.369 107.532 366.118C110.706 368.305 115.308 371.294 119.231 375.717C123.394 380.411 127.459 385.727 128.696 388.143C130.109 390.905 133.476 399.765 138.935 404.14C141.766 406.409 146.407 408.747 148.736 409.935C149.458 410.304 157.069 412.191 162.255 413.093C169.145 414.292 174.01 412.554 179.728 412.486C177.705 410.773 171.647 408.169 167.639 405.863C162.565 402.944 154.871 399.687 154.108 399.411C153.498 399.191 144.38 395.316 139.898 393.406" stroke="black"/>
<path d="M285.899 356.685C287.002 358.873 288.227 361.916 289.097 365.46C290.971 373.086 290.072 377.771 289.212 385.587C288.439 392.6 286.732 397.965 285.389 403.251L265.267 403.073C260.858 402.863 232.39 400.013 229.02 399.315C226.091 398.707 203.532 393.791 187.896 388.078C174.414 383.152 156.676 375.023 154.053 373.415C148.55 370.039 128.741 356.646 121.186 351.313C118.368 349.324 115.446 349.068 111.84 349.495C109.598 349.761 106.4 351.394 104.002 354.449C102.736 356.062 102.498 359.391 101.781 360.575C101.781 360.575 96.4982 359.126 92.9615 360.156C89.4247 361.185 82.5501 364.979 81.2404 366.306C79.9306 367.633 78.7451 370.255 75.4122 372.852C71.2996 376.056 63.6091 378.287 61.8473 378.858C60.7411 379.217 55.203 381.473 51.5973 381.901C47.9916 382.328 43.1389 381.442 43.1389 381.442" stroke="black"/>
<path d="M134.773 329.567C134.98 331.374 134.776 333.175 135.435 335.348C136.393 338.506 138.225 341.828 139.19 342.592C140.154 343.357 142.993 344.949 143.931 345.692" stroke="black"/>
<path d="M250.328 330.147C251.445 332.456 253.953 337.084 254.484 337.71C257.02 340.705 260.795 344.509 265.101 347.437C268.357 349.651 271.45 351.811 273.017 352.724C274.27 353.454 279.726 357.055 283.734 356.946C287.742 356.837 302.36 353.639 307.532 354.124C312.589 354.599 322.576 357.833 322.576 357.833C322.576 357.833 345.758 365.938 346.936 366.297C352.995 368.142 373.236 378.925 376.369 380.75C378.875 382.211 387.216 383.981 391.579 385.905C391.91 388.795 392.736 399.829 388.85 406.734C383.991 415.366 382.739 423.571 381.794 428.077C381.315 430.357 382.108 437.195 381.328 443.146C379.088 448.05 373.509 459.746 368.615 462.963C362.498 466.984 351.069 475.914 349.347 476.599C344.104 478.685 331.927 480.861 327.6 481.374C323.273 481.887 307.644 482.642 301.751 482.242C299.663 482.1 290.768 482.079 285.72 482.678C282.475 483.063 276.666 485.949 272.627 486.427C267.579 487.026 265.055 487.325 258.731 489.54C251.185 492.182 245.099 496.081 242.446 497.329C238.285 499.288 236.134 502.838 230.808 504.202C229.401 504.563 225.039 504.886 222.155 505.228C219.27 505.57 219.553 502.729 213.766 502.195C207.979 501.66 196.058 498.584 193.156 496.845C188.055 493.787 172.389 484.659 168.279 481.589C164.168 478.518 148.291 463.452 148.291 463.452L135.25 448.52C135.25 448.52 131.538 442.096 128.487 440.533C123.922 438.195 120.111 441.014 115.494 438.778C110.419 436.319 113.631 432.27 108.607 429.708C105.934 428.344 102.991 428.543 99.5391 427.121C96.0871 425.699 94.3832 422.313 90.5007 421.601C86.6182 420.89 83.8792 420.959 79.8663 418.102C76.3577 415.603 75.6555 412.328 75.0302 410.985C73.0911 406.821 68.9648 403.77 65.8553 401.087C62.7459 398.404 53.6666 396.78 51.2425 394.764C47.1495 391.359 45.1726 389.624 44.4381 386.416C44.0897 384.894 43.4261 381.757 42.6525 380.402C41.2811 378.002 38.7664 375.194 39.1975 372.58C39.6286 369.965 43.9007 365.783 46.9602 363.78C48.2015 362.967 51.0795 361.46 52.7998 360.524C54.5201 359.588 55.0534 355.966 57.8238 353.337C60.0873 351.189 63.1317 350.755 65.1766 347.339C67.2215 343.922 69.7388 339.014 72.3928 336.962C75.7503 334.367 80.993 332.281 83.5584 332.343C85.6107 332.392 93.109 331.699 96.2615 331.569C99.4141 331.439 102.039 329.652 105.831 328.97C110.298 328.166 112.229 327.87 116.731 328.41C119.945 328.795 124.676 330.763 124.676 330.763C126.215 331.435 129.032 331.345 129.848 331.249C133.454 330.821 135.493 329.481 136.451 328.269C137.408 327.057 137.674 322.997 138.146 320.744C138.619 318.491 138.993 314.61 139.759 312.497C140.592 310.201 141.107 308.309 140.9 306.503C140.639 304.228 139.598 301.53 139.598 301.53" stroke="black"/>
<path d="M252.048 176.145C252.296 178.313 253.564 184.463 253.539 189.151C253.506 195.357 250.963 197.549 250.827 203.754C250.696 209.72 250.563 214.632 250.929 220.586C251.465 229.308 252.793 236.844 252.208 241.307C251.877 243.833 250.536 255.42 248.787 259.29C247.912 261.224 245.64 270.753 241.636 276.616C238.287 281.521 233.06 287.886 230.619 288.908" stroke="black"/>
<path d="M199.037 300.343C201.787 299.895 210.03 296.769 213.004 294.659C215.978 292.549 223.456 284.876 225.865 282.515C228.275 280.154 235.44 270.394 236.593 267.694" stroke="black"/>
<path d="M167.792 327.483L165.763 309.781C163.156 309.357 156.975 308.992 152.77 308.025C148.566 307.059 142.4 303.64 140.002 301.849C137.604 300.059 134.67 297.843 133.446 295.669C132.222 293.495 130.069 288.526 129.804 286.214C129.539 283.902 128.865 278.025 128.561 275.376C128.258 272.726 124.88 271.021 123.365 268.302C120.877 263.836 120.997 258.637 120.018 251.854C119.632 249.184 119.834 247.619 119.231 244.99C117.638 238.05 112.753 235.25 110.753 228.418C109.317 223.515 108.732 221.333 108.624 216.22C108.523 211.457 109.599 208.803 109.42 204.042C109.287 200.493 109.587 198.347 108.385 195.01C107.609 192.853 106.778 190.896 106.197 188.678C104.896 183.706 103.872 174.673 104.405 169.849C104.992 164.524 105.3 162.191 106.963 157.095C108.048 153.771 108.656 151.899 110.018 148.677C111.263 145.734 111.109 145.197 112.199 142.193C113.032 139.898 113.284 138.311 114.143 136.836C115.059 135.263 116.767 131.032 116.767 131.032" stroke="black"/>
<path d="M172.808 307.48L186.51 305.855L195.946 321.215" stroke="black"/>
<path d="M176.554 333.767C178.481 334.637 179.645 335.232 184.693 334.633C189.741 334.035 190.102 333.992 193.708 333.564C196.592 333.222 198.95 331.478 199.145 329.99L200.493 325.802" stroke="black"/>
<path d="M162.47 296.987C162.448 294.671 163.405 289.846 167.411 289.078C172.417 288.118 176.715 290.538 176.715 290.538C176.715 290.538 188.526 297.927 192.268 301.877C196.01 305.828 200.527 313.348 202.508 317.874C204.092 321.494 205.734 326.89 206.357 329.135" stroke="black"/>
<path d="M117.127 194.687L117.122 194.706C117.122 194.706 119.123 197.277 120.74 197.573C122.358 197.87 126.057 198.041 128.076 197.802C130.6 197.503 132.847 196.065 133.638 195.312C134.956 194.057 135.752 192.498 136.871 191.633C136.321 191.088 134.723 189.47 132.727 187.364C130.731 185.257 127.791 185.752 125.586 185.647C123.825 186.222 121.343 187.001 119.746 188.903C118.117 190.843 117.548 193.052 117.127 194.687Z" stroke="black"/>
<path d="M113.28 196.262C113.298 197.48 115.2 199.623 117.063 200.574C119.392 201.762 121.639 202.228 124.565 202.247C127.491 202.267 129.954 202.003 132.415 200.584C134.815 199.201 135.643 198.268 137.492 197.053C138.852 196.159 140.318 195.131 140.85 194.458" stroke="black"/>
<path d="M113.32 196.623C113.793 194.369 116.695 187.799 117.652 186.587C118.61 185.375 121.296 182.455 122.924 181.569C124.645 180.633 127.369 180.388 130.94 181.351C134.711 182.369 135.876 182.961 138.205 184.15C140.068 185.101 141.689 186.911 142.266 187.697" stroke="black"/>
<path d="M142.146 177.092C142.441 177.545 143.171 179.021 143.725 181.299C144.278 183.577 143.648 185.946 143.264 186.846" stroke="black"/>
<path d="M159.412 174.679C159.536 175.762 160.116 180.82 158.479 182.479C156.842 184.138 148.785 183.995 146.982 184.208C145.682 184.363 142.862 186.528 141.988 188.462C141.075 190.481 140.902 195.337 140.263 198.92C139.595 202.661 140.34 209.164 140.104 210.291C139.915 211.192 137.669 216.682 137.007 218.348" stroke="black"/>
<path d="M152.644 153.877C152.051 156.144 150.534 162.256 150.156 164.059C149.683 166.312 147.739 171.669 146.823 173.242C145.907 174.816 144.27 176.475 141.787 177.135C139.305 177.796 135.575 177.139 134.05 176.588C132.525 176.036 128.185 175.075 125.384 174.319C123.498 173.811 119.909 174.383 116.813 176.068C113.717 177.753 114.214 177.841 113.054 178.345C113.077 177.487 113.469 174.465 115.636 172.18C117.593 170.117 118.748 168.57 121.269 167.117C123.669 165.734 126.989 164.096 130.839 164.518C134.688 164.941 138.996 166.602 140.628 167.019" stroke="black"/>
<path d="M152.785 148.732C152.687 151.063 152.656 157.17 152.821 158.615C153.028 160.422 152.443 164.885 153.856 167.647C155.27 170.409 159.443 171.745 161.246 171.531C163.049 171.318 168.457 170.676 169.539 170.548C170.621 170.42 176.78 166.76 178.458 165.463C180.137 164.165 184.744 159.078 187.85 158.124C191.734 156.931 196.056 156.159 199.749 156.713C203.84 157.327 214.516 161.188 218.855 163.969C221.297 165.534 224.906 171.063 227.545 172.825" stroke="black"/>
<path d="M175.226 191.478C177.958 192.985 180.411 193.251 184.871 192.722C187.756 192.38 193.21 191.949 194.246 191.611C196.008 191.036 198.541 190.179 200.106 188.528C201.671 186.878 203.089 185.855 203.38 185.211" stroke="black"/>
<path d="M176.19 180.746C176.152 181.482 176.877 182.495 177.201 183.189C177.753 184.376 178.531 185.228 180.097 186.141C181.498 186.958 183.508 187.202 185.352 187.349C187.197 187.497 192.522 186.133 193.243 186.047C193.965 185.962 195.973 184.912 196.364 184.579C197.363 183.728 197.72 182.587 197.919 182.197L198.433 180.305" stroke="black"/>
<path d="M173.14 179.644C172.183 180.856 167.466 184.345 165.705 184.92L171.474 184.236C171.474 184.236 173.459 183.191 174.872 182.002C176.411 180.708 177.107 179.174 179.146 177.833C181.185 176.493 183.224 175.739 186.552 175.49C189.33 175.283 190.978 175.365 192.848 176.209C194.775 177.079 198.156 181.072 201.165 181.814C203.572 182.407 213.225 180.75 217.751 179.847C214.585 179.857 211.142 181.135 207.17 180.003C203.765 179.033 201.348 177.032 199.338 175.439L199.257 175.375C197.286 173.813 195.721 172.573 191.145 170.918C188.094 169.815 181.326 171.349 179.246 172.329C177.272 173.258 174.098 178.431 173.14 179.644Z" stroke="black"/>
<path d="M114.955 150.289C115.483 148.517 122.958 146.777 122.958 146.777C122.958 146.777 132.498 147.11 137.753 148.318C143.009 149.526 152.466 149.27 158.832 147.284C164.145 145.626 168.721 144.28 173.562 141.875C180.075 138.64 184.305 138.523 191.106 138.697C197.907 138.871 204.103 141.55 209.519 143.105" stroke="black"/>
<path d="M130.215 136.759C132.406 136.744 134.525 136.972 137.634 137.711C140.407 138.37 140.004 139.26 144.136 140.235C148.268 141.21 150.276 141.218 153.275 140.25C156.425 139.235 158.63 135.954 160.308 134.656C162.546 132.926 165.108 131.89 167.632 131.591C170.156 131.292 173.123 131.672 173.123 131.672" stroke="black"/>
<path d="M126.266 131.003C127.468 130.86 130.345 129.35 133.034 129.469C136.531 129.623 137.61 131.123 142.061 131.694C145.622 132.15 150.118 131.837 150.118 131.837C150.118 131.837 156.234 130.99 159.008 129.684C161.782 128.379 166.249 125.897 169.452 125.15C172.656 124.404 179.992 124.633 179.992 124.633" stroke="black"/>
<path d="M144.701 228.053C143.159 227.357 141.596 226.468 140.888 226.674C140.181 226.88 139.793 227.784 140.013 228.607C140.327 229.778 140.362 230.039 141.025 231.053C141.468 231.732 142.224 232.607 143.478 233.324C144.26 233.772 145.363 233.833 146.085 233.748L148.609 233.449L148.621 233.447C149.7 233.319 150.951 233.171 151.009 232.067C151.066 230.959 149.401 230.792 148.236 230.198C146.865 229.5 145.986 228.633 144.701 228.053Z" stroke="black"/>
<path d="M152.336 234.107C152.336 234.107 144.384 236.148 141.88 235.347C139.376 234.545 138.322 233.645 137.901 232.523C137.48 231.401 137.964 227.755 137.918 226.295L136.7 222.046C136.327 218.794 137.835 216.638 138.922 215.923C140.282 215.03 143.805 213.879 146.329 213.58C148.853 213.281 151.447 213.532 154.912 215.126C157.823 216.465 158.695 219.438 160.137 219.267C161.58 219.096 166.555 217.83 169.512 218.156C173.233 218.565 175.654 220.722 177.345 222.719C178.658 224.27 178.522 226.608 178.049 228.861C177.576 231.114 175.177 232.498 175.177 232.498" stroke="black"/>
<path d="M162.203 224.517C160.595 223.242 158.701 222.818 157.433 224.352C155.85 226.265 158.692 228.962 158.692 228.962C158.692 228.962 160.486 231.276 162.31 231.828C164.614 232.527 167.28 232.058 168.8 231.059C170.32 230.06 169.273 228.806 168.427 227.808C167.582 226.809 165.016 226.747 162.203 224.517Z" stroke="black"/>
<path d="M183.417 227.86C186.822 230.996 193.216 237.464 196.044 239.179C199.579 241.324 205.928 245.697 207.258 247.737C208.052 248.953 210.172 253.271 209.736 256.598C209.346 259.573 206.428 261.75 206.072 262.891" stroke="black"/>
<path d="M134.836 237.649C132.561 240.116 130.729 243.262 129.493 245.24C128.631 246.621 126.55 251.448 125.717 253.744C125.051 255.58 124.11 259.915 123.661 261.311" stroke="black"/>
<path d="M183.382 240.312C183.857 242.33 185.154 246.84 186.54 248.726C188.272 251.084 190.766 253.717 192.457 255.714C193.81 257.311 196.237 258.928 197.281 259.536" stroke="black"/>
<path d="M134.52 282.725C134.52 282.725 133.829 286.259 135.099 287.782C136.535 289.502 138.274 289.97 140.715 288.948C143.156 287.925 146.792 284.567 149.83 282.375C151.6 281.098 155.35 279.523 159.955 278.244C164.559 276.966 170.606 275.516 175.82 276.363C181.034 277.21 183.946 279.232 189.38 279.883C194.476 280.492 202.526 279.788 202.526 279.788L212.262 278.634" stroke="black"/>
<path d="M148.534 267.881C149.491 266.669 152.416 264.125 156.454 263.647C161.502 263.048 165.108 262.62 167.992 262.279C170.877 261.937 176.177 264.604 178.461 264.333" stroke="black"/>
<path d="M138.695 252.202C137.51 254.533 137.56 256.121 137.153 257.878C137.153 257.878 137.36 259.685 139.009 261.32C140.658 262.955 141.284 262.881 143.904 262.571C145.707 262.357 147.917 260.386 149.826 260.037C149.826 260.037 153.655 258.585 155.471 258.27C158.436 257.755 161.962 257.5 161.962 257.5C165.53 257.506 168.216 257.857 170.822 258.28C173.429 258.704 175.995 258.766 178.755 257.34C181.972 255.678 183.82 250.514 183.82 250.514C183.82 250.514 181.529 248.002 180.078 246.564C177.729 244.235 176.137 243.183 173.286 241.51C170.709 239.998 169.677 238.531 166.7 238.263C164.866 238.097 163.685 238.894 162.137 239.902C160.518 240.957 158.863 243.22 158.863 243.22C158.863 243.22 157.297 243.773 156.339 243.519C154.969 243.157 153.483 240.928 153.483 240.928C153.483 240.928 153.72 239.802 150.835 240.144C147.951 240.486 144.518 244.335 143.719 245.015C142.72 245.866 140.247 249.15 138.695 252.202Z" stroke="black"/>
<path d="M133.254 265.297C135.447 262.108 137.557 255.969 141.984 252.178C144.881 249.698 146.673 249.4 150.306 248.262C152.744 247.499 156.422 247.415 157.518 247.407C157.518 247.407 162.462 245.905 166.172 246.381C169.881 246.857 173.631 247.693 175.6 248.924C176.572 249.533 180.979 251.216 183.143 250.96C184.873 250.755 186.989 250.504 187.83 250.404" stroke="black"/>
<path d="M250.329 253.616C251.34 256.059 253.428 261.524 253.693 263.837C254.024 266.727 254.682 282.029 254.263 287.937C253.844 293.846 251.506 299.912 251.049 307.726C250.666 314.276 251.5 321.221 251.234 325.281C250.996 328.912 249.58 333.167 248.51 336.59C245.933 340.679 242.233 344.89 240.307 351.111C238.212 357.877 239.339 363.92 239.091 369.198L240.996 385.817" stroke="black"/>
<path d="M187.397 361.411C188.755 363.691 192.219 369.042 195.212 372.203C198.206 375.363 201.258 373.927 202.784 371.305C202.784 371.305 206.623 360.473 208.174 354.553C209.362 350.017 208.362 340.249 208.362 340.249" stroke="black"/>
<path d="M75.0506 372.901C76.5343 373.091 79.3482 375.321 82.3691 379.357C85.2852 383.253 92.9692 395.311 95.3104 399.793C98.3585 405.63 101.954 414.386 103.15 417.173C104.347 419.961 107.314 426.933 108.205 429.39" stroke="black"/>
<path d="M335.097 438.375C336.341 438.594 339.32 439.409 340.518 441.028C343.132 444.561 342.212 449.558 338.474 451.89C336.184 453.318 333.55 453.572 330.541 452.83C327.909 452.181 325.371 449.171 323.625 446.693C321.879 444.214 321.17 439.572 323.103 435.769C324.891 432.254 326.95 430.284 330.775 429.367C335.88 428.143 339.491 429.363 343.892 432.206C349.703 435.959 350.764 442.022 350.833 444.931C350.928 448.948 346.915 458.579 342.713 460.175C338.557 461.754 334.63 461.194 330.565 459.418C323.895 456.505 317.702 449.226 315.721 444.7C313.597 439.845 313.48 434.713 313.48 434.713C313.606 432.623 314.528 428.432 316.494 425.933C319.357 422.293 323.388 422.308 326.176 421.123C326.176 421.123 320.183 414.457 319.318 409.12C318.59 404.633 319.026 401.316 321.64 397.493C324.081 393.923 326.627 392.458 330.795 391.28C335.334 389.997 341.542 392.57 341.542 392.57C345.784 394.508 351.122 397.502 352.992 400.001C356.013 404.037 357.882 410.773 357.658 415.194C357.434 419.614 354.449 425.461 352.41 426.802C350.371 428.142 343.303 430.845 337.987 428.512C332.533 426.117 330.732 420.03 329.409 417.443C327.996 414.681 327.682 405.564 329.555 402.78C331.409 400.024 332.922 399.206 335.992 398.354C339.062 397.501 345.335 399.001 347.306 401.407C349.64 404.258 348.98 409.63 348.98 409.63C348.572 411.387 346.592 414.307 344.831 414.883C343.449 415.334 340.782 414.631 339.617 414.036C338.452 413.441 335.916 410.448 335.916 410.448" stroke="black"/>
<path d="M277.674 147.842C277.674 147.842 278.424 144.823 279.742 143.568C281.06 142.314 283.645 141.758 285.387 141.8C287.952 141.861 289.269 143.782 290.891 145.176" stroke="black"/>
<path d="M190.29 80.5677C187.204 77.0276 181.956 68.4463 179.884 63.1259C177.295 56.4755 175.292 45.3839 174.958 42.4713C174.503 38.4972 173.879 28.8062 173.804 22.8341C179.201 26.3443 189.384 32.4287 191.119 33.5978C193.891 35.4662 202.241 43.2646 205.076 46.9565C207.911 50.6484 208.848 55.4198 210.007 58.0898" stroke="black"/>
<path d="M127.535 62.3765C125.311 64.227 122.818 65.8652 120.584 68.6934C120.18 69.2044 117.17 73.9806 115.602 76.2416" stroke="black"/>
<path d="M235.608 168.574L105.081 184.05L89.9366 185.845L90.3507 189.458L94.6775 188.945L95.0502 192.196L98.656 191.769L106.277 204.048L139.656 201.921L142.285 186.596L155.626 185.014L166.546 200.564L218.107 194.451L231.347 176.037L233.871 175.738L233.498 172.486L236.022 172.187L235.608 168.574Z" fill="black"/>
<path d="M255.438 166.223L235.606 168.574L235.896 171.103L259.333 168.324L255.438 166.223Z" fill="black"/>
<path d="M104.915 182.606L90.2975 185.803L105.081 184.051L104.915 182.606Z" fill="black"/>
<rect width="5.08337" height="2.90913" transform="matrix(0.993045 -0.117738 0.113882 0.993494 214.469 175.474)" fill="#EFEFEF"/>
<rect width="5.08337" height="2.90913" transform="matrix(0.993045 -0.117738 0.113882 0.993494 211.917 178.707)" fill="#EFEFEF"/>
<rect width="5.08336" height="2.90913" transform="matrix(0.993045 -0.117738 0.113882 0.993494 209.364 181.941)" fill="#EFEFEF"/>
<rect width="5.08337" height="2.90912" transform="matrix(0.993045 -0.117738 0.113882 0.993494 98.1988 187.797)" fill="#EFEFEF"/>
<rect width="5.08337" height="2.90913" transform="matrix(0.993045 -0.117738 0.113882 0.993494 100.695 190.427)" fill="#EFEFEF"/>
</svg>
