<svg width="772" height="759" viewBox="0 0 772 759" fill="none" xmlns="http://www.w3.org/2000/svg">
<path d="M232 708C242.8 708 294.5 707 319 707L314 704.5C312 703.5 307.717 701.485 304.5 698.5C302.264 696.425 301.152 695.064 299.5 692.5C297.416 689.267 296.431 686.223 296 684.5C295.168 681.172 294 674.5 292.5 670C291 665.5 290 657 288 652.5C286 648 282.5 639.5 282 637.5C281.709 636.336 282 628 282 624C282 620 284 613.5 284 613.5C284 613.5 288.166 602.484 291 595.5C293.298 589.836 297 581 297 581C297 581 300.457 574.378 304 570C306.868 566.457 309.733 563.179 313 560C316.37 556.72 318.059 554.705 321.5 551.5C326.754 546.607 329.654 544.121 334 540.5C337 538 344 534 344 534L356.5 527.5C356.5 527.5 361.502 525.207 364.5 524C370.521 521.576 380.5 520 380.5 520C385.333 519 389.731 517.703 395.5 516C401.068 514.356 408.462 511.415 409.5 511C412 510 423 507.5 430 506C437 504.5 454 503 454 503L455.272 502.902C463.466 502.272 471.268 501.671 481.5 501C490.082 500.437 499.469 500 503.5 500C509.5 500 514.3 498.4 515.5 498C517 497.5 525 493 526.5 492C528 491 536.752 483.686 543 479C551 473 569 461 573.5 458C578 455 582.131 451.771 587.5 448C595.123 442.646 599.653 440.521 607.5 435.5C622.79 425.717 641.5 414 647 410.5C652.5 407 669.367 393.132 670 392.5C671.5 391 678.404 386.232 682 380.5C686.661 373.069 687.5 362.5 689 359C689.812 357.105 691.721 351.926 694 347.5C697.083 341.514 702.329 333.842 703 332.5C704 330.5 711.701 316.848 717 306.5C720.264 300.126 725 291 725.5 290C726 289 732.753 277.343 735.5 268.5C737.51 262.027 738.167 256.833 739 251.5C739 251.5 739.311 243.47 740.5 238.5C741.362 234.897 742.044 232.907 743.5 229.5C745.252 225.402 747.333 224.667 749.5 218.5C751.667 212.333 754.144 207.547 755 200C755.141 198.759 756 190 755 189C754 188 753.794 188.94 752.5 188.5C751.056 188.009 750.447 186.982 749 186.5C747.5 186 745.641 186.323 743.5 186.5C740.523 186.746 738.878 187.2 736 188C733.203 188.778 730 190.5 728.5 191.5C724.817 193.956 723.287 195.035 720 198C717.64 200.129 716.198 202.204 714 204.5C709.949 208.731 707.167 212.333 705 216C702.833 219.667 699.5 226 698 228.5C697.258 229.737 693.667 239.5 692 244.5C690.333 249.5 690.413 253.457 689 259.5C687.674 265.172 687.055 268.334 685 274.5C684.5 276 683.172 277.219 682 278C680.5 279 677.5 281.654 676.5 282.5C675.5 283.346 665.132 292.368 664.5 293C663 294.5 657 300 653.5 303.5C650 307 646.35 311.166 643.5 317.5C639 327.5 634.5 329.5 634.5 329.5C634.5 329.5 631.157 328.683 630 328.5C624 327.553 612.653 323.841 601.5 321C582.041 316.044 553.5 310 553.5 310L544.5 317.5C544.5 317.5 541 316.5 539 316C537 315.5 524.5 312 518 310.5C516.051 310.05 507.5 309.303 505.5 309C503.5 308.697 498.57 308.244 497 309.5C494.5 311.5 493.895 318 494.5 321L494.535 321.172C494.98 323.386 496.375 330.325 499 334C501.5 337.5 506 340.5 506 340.5C506 340.5 502.182 344 501 345.5C499.525 347.372 495 351.5 495 353C495 355.903 501 356.684 501 359.5C501 361 502.167 363.667 504 366C504 366 505.988 368.494 507 369C509 370 512.667 371.833 515 372.5C515 372.5 509.69 373.766 506.5 374.5C504.5 374.96 486 375.267 482.5 375C475.231 374.445 470.978 374.109 464 372C461 371.093 443.5 361 443.5 361C439 358 427.5 351.5 427.5 351.5C427.5 351.5 413.5 345.5 409.5 343C405.5 340.5 397.653 335.696 394 331C390.5 326.5 386.859 319.157 383.5 311C380 302.5 379 289.5 379 289.5C379 289.5 378.726 278.806 379.5 273C380.5 265.5 381.922 254 383 246.5C384.01 239.475 384.534 234.944 386 228C387.468 221.046 389.047 217.334 391 210.5C392.562 205.033 393.69 202.033 395 196.5C396.509 190.127 398 186.549 398 180C398 174.5 396.195 161.369 394.5 149.5C393.715 144 393.334 135.826 390 128C387.834 122.916 387.102 120.191 383.5 116C381.7 113.906 380.641 112.744 378.5 111C375.176 108.293 373.092 106.778 369 105.5C365.254 104.33 357.5 104 357.5 104C357.5 104 352.389 104.143 348.5 105.5C345.527 106.537 343.972 107.55 341.5 109.5C340.233 110.5 336.5 114.5 335.5 116C334.5 117.5 330 127 329.5 129C328.875 131.5 327 140.5 327 144C327 147.5 326.111 155.471 326 162.5C325.84 172.66 326 188 326 188C326 188 325.832 192.983 325.5 195.5C325.128 198.319 323.5 202.5 323.5 202.5L320 213.5C320 213.5 318.685 217.725 318 221.5C317.3 225.362 317.105 229.122 316.5 233C315.601 238.755 313 247.5 313 247.5C313 247.5 309.919 259.466 307.5 267C304.573 276.117 299 290 299 290C299 290 295.843 296.446 294.5 299.5C291.965 305.264 288 312 288 312C288 312 282.216 320.839 278.5 325.5C275.057 329.819 270 335 270 335L264 341C264 341 259.147 345.492 256.5 348.5C254.1 351.227 251 355.5 251 355.5L244 365C244 365 236.667 375.667 235 380C233.333 384.333 231.5 389.5 230.5 392C230.168 392.83 224.5 407 223.5 410.5C222.5 414 221.309 418.492 220.5 422C218.19 432.014 215.169 442 214 445.5C210.508 455.957 207.831 462.09 203 472C197.807 482.652 194.467 488.39 188.709 498.282L188 499.5C183.772 506.765 179.175 514.5 177 518C172.827 524.717 165.5 535 165.5 535C165.5 535 159.162 543.478 154.5 549C148.704 555.865 144.936 559.732 138.5 566C131.854 572.472 121 581.5 121 581.5C121 581.5 112.169 588.52 105.5 594C99.2983 599.096 93.551 602.701 88 608.5C83.7816 612.906 81.5555 615.543 78 620.5C73.7646 626.405 68.5 636 68.5 636C69.1667 637.667 70.0209 649.364 73 657C80.9297 677.325 92.5477 688.405 113 696C130.573 702.526 142.297 694.746 161 696C189.057 697.881 218.5 708 232 708Z" fill="url(#paint0_linear_306_6402)"/>
<path d="M358.5 62L355 104.5C355 104.5 359.903 104.088 363 104.5C367.713 105.128 370.376 106.134 374.5 108.5C378.23 110.64 380.833 112.667 383 115.5C385.167 118.333 389.5 125 389.5 125C389.5 125.8 391.833 134.667 393 139C393 139 395.961 156.309 397 167.5C397.524 173.152 398.312 176.333 398 182C397.627 188.768 396.193 192.437 394.5 199C392.711 205.937 391.084 209.646 389 216.5C387.4 221.761 385.985 224.59 385 230C384.367 233.479 384.404 235.487 384 239C382.922 248.384 382.194 253.63 381 263C380.228 269.054 379.5 279 379.5 279C379.5 279 386.909 280.391 392 281.5C402.103 283.701 407.891 284.33 418 286.5C430.178 289.115 435.931 290.667 448 293.745C455.435 295.641 467 298.745 467 298.745C475.333 300.745 493.5 304.5 493.5 304.5C493.5 304.5 517.833 306.833 530.5 308C543.167 309.167 545.832 309.015 553 310C560.134 310.98 562.478 311.906 569.5 313.5C595.178 319.328 635 329.5 635 329.5C636.5 327.833 641 323 641 323C641 323 648.5 308.5 653 304C654.523 302.477 666.667 291 673 285.5C679.333 280 682.991 278.349 685 275C688 270 691 244.833 693.5 239.5C696 234.167 700.182 223.932 701 222.5C703 219 712 205.5 719.5 198.5C719.5 198.5 717.361 188.364 715.5 182C712.934 173.225 710.935 168.472 707.5 160C704.937 153.68 700.5 144 700.5 144C700.167 143.667 699.3 142.9 698.5 142.5C697.5 142 680 134 677.5 133C675.826 132.331 662.733 126.995 661 126.5C657.5 125.5 642 120.5 642 120.5C642 120.5 622.833 112.667 613 108.5C608 106.5 597.2 101.9 596 101.5C594.5 101 583.459 97.0329 575.5 93C568.867 89.6393 565 87.3333 560 84.5C555 81.6667 543.5 73 543.5 73C540.333 71.3333 535.9 68.5 531.5 66.5C527.1 64.5 522 63.5 520 63.5C520 63.5 508.284 63.7037 499.5 63.5C488.358 63.2417 482.133 62.5196 471 62C461.629 61.5626 450.379 60.8052 441 61.0001C434.741 61.1301 415.761 62 409.5 62H358.5Z" fill="#878EDC"/>
<path d="M463 184C463.4 184.4 468 188.5 467.5 189.5C466.999 190.5 466 190 466 190C465 189.833 464.5 189.5 461.5 188.5C458.5 187.5 455 185.833 452.5 184C451.5 183.267 450.8 182.2 450 181C449.2 179.8 450 178 450.5 177L451.5 175.5C452 175.5 451.8 175 453 175C454.2 175 456 177.5 457 178.5C458.833 180.333 462.6 183.6 463 184Z" fill="#323B6B"/>
<path d="M734.5 204.5C735.5 200.5 738.5 187.5 738.5 187.5C738.5 187.5 741.5 187 743.5 186.5C744.47 186.257 746.733 185.908 749 186.5C749.597 186.656 752 188.5 752 188.5C752 188.5 748.823 193.857 747.5 197L747.471 197.069C745.207 202.449 743.496 206.513 742.5 209.5C741.5 212.5 740.5 216.5 739.5 219.5C738.944 221.167 738.5 225 738.5 226C738.5 227 739.756 227.756 740.5 228.5C741.5 229.5 743 230 743 230C743 230 740.369 237.44 740 241.5C739.5 247 738.851 253.5 738 258C736.899 263.826 735.152 269.697 732.5 275C730 280 727.5 286.5 725 290.5C720.325 297.98 716.634 306.5 714.5 310.5C709.688 319.519 707.696 324.196 702.5 333C698.755 339.346 695.596 343.813 692.5 350.5C690.098 355.689 689.449 357.638 687.75 362.749L687.5 363.5C685.686 368.949 685.618 373.388 683 378.5C680.951 382.501 679.579 383.725 676.5 387C674.223 389.423 672.551 390.367 670 392.5C662.115 399.091 656.429 403.621 648 409.5C639.595 415.362 635.621 416.961 627 422.5C622.262 425.545 616.23 429.942 611.5 433C603.991 437.855 599 440.511 594.5 443.5C586.691 448.687 582.741 451.712 575 457L574.682 457.217C568.7 461.304 565.032 463.81 559 468C553.034 472.144 549.889 474.248 544 478.5C539.915 481.45 535.667 485.167 533.5 487C531.333 488.833 530 490 527.5 491.5C525.356 492.786 522 495 519.5 496.5C517 498 512 499.318 510 499.5C508 499.682 499.8 500.5 499 500.5H491C488.667 500.5 483.183 500.818 478.5 501C470.851 501.297 468.109 501.661 460.5 502.5C455.42 503.06 452.082 503.457 447 504C440.953 504.646 438.012 504.583 432 505.5C422.87 506.892 417.75 508.046 409 511C404.431 512.542 402.06 513.932 397.5 515.5C394.405 516.564 391.158 517.14 388 518C383.566 519.208 382.481 519.478 378 520.5C372.32 521.794 367.5 523.069 363.5 524.5C359 526.11 354.244 528.353 348.5 531.5C342.509 534.782 339.106 535.961 334 540.5C329.5 544.5 323.358 549.285 320.5 552.5C316.5 557 310.579 561.104 305.5 568C302.223 572.449 300.146 575.148 297.5 580C294.614 585.292 293.912 588.476 291.5 594C288.801 600.181 285.5 609 284.5 612C283.5 615 282.5 619.5 282.5 619.5C282.5 619.5 281.171 629.898 282 635.5C282.931 641.792 286.075 646.938 288 653C289.982 659.239 290.686 662.71 292.5 669C293.957 674.052 295 678.5 295.5 682C296 685.5 297.239 688.531 299 692C300.269 694.5 303.5 697.5 303.5 697.5C301.667 699 294.5 699.5 292.5 699.5C290 699.5 282.94 697.05 278.5 691.5C270.5 681.5 269 668.5 267 662.5C265 656.5 253.472 637.609 254.5 619.5C255.64 599.405 270.5 579 272.5 575.5C274.5 572 300.6 539.013 323.5 522.5C335.405 513.915 349.163 506.919 354 504.5C363 500 400.711 491.776 428 484.5C452.298 478.021 484.402 469.053 488 468.5C494.5 467.5 509 461.5 512.5 459.5C516 457.5 527 448.5 530.5 442C534 435.5 532 424.5 534.5 418.5C537 412.5 543.806 401.92 546 400C550 396.5 561.333 390.167 566.5 387.5C574.5 383.371 609.5 367.8 611.5 367C614 366 643.577 356.399 651 351C656.5 347 666.008 334.824 669 331.5C673.5 326.5 704.879 279.828 707 277C708.5 275 723.166 247 725.5 240C726.923 235.731 733.464 208.644 734.5 204.5Z" fill="url(#paint1_linear_306_6402)" stroke="black"/>
<path d="M577 214C572.167 215.833 566.5 215.5 566.5 215.5C566.5 215.5 564 216.733 565.5 219C566.625 220.7 571.5 220 571.5 220H585C585 220 596.333 221.5 602 222.5C609.5 224.5 613.429 228.202 620.5 230.5C626.986 232.608 634.5 234.5 637.5 234.5C642.5 234.5 654.5 236 664 236C673.5 236 681.5 234.5 681.5 234.5C681 233.333 678 227.5 678 227.5C678 227.5 671.11 216.11 666.5 211.5C660 205 656.003 201.566 647.5 199C640.386 196.853 632.5 197 628.5 197C624.5 197 615 198.227 610.5 200C606 201.773 597 204.5 592.5 206.5C589.645 207.769 581.833 212.167 577 214Z" fill="#D9D9D9" stroke="black"/>
<path d="M651.5 232.5C647.222 233.052 640.7 234 639.5 234L642 234.5C642 234.5 647.5 235.5 650.5 235.5C653.5 235.5 660.067 236 662.5 236C665.5 236 671.5 235.5 675.5 235C678.518 234.623 680.667 234.5 681 234L677 226L672 228.5C671.368 228.816 667.24 229.946 664.5 230.5C659.056 231.601 657.008 231.79 651.5 232.5Z" fill="#323B6B"/>
<path d="M428 151.5C428 150.5 426.686 148.069 427 146.5C427.5 144 429 142.833 429.5 142" stroke="black"/>
<path d="M632 197C632.333 196.667 633.1 195.7 633.5 194.5C633.9 193.3 633.667 191 633.5 190" stroke="black"/>
<path d="M669 214C669.5 214.667 671 215.8 673 215C675 214.2 676.5 213 677 212.5C677.5 212 678 211 678 211" stroke="black"/>
<path d="M675 223C675.167 223.5 676 224.6 678 225C680 225.4 683.5 225.167 685 225" stroke="black"/>
<path d="M439.5 169.5L450 178C450 178 450.503 176.218 451 175.5C451.629 174.592 453.5 175 453.5 175C453.5 175 449.716 170.327 448.5 169C444.951 165.126 440 161 440 161C440 161 440.5 164.133 440.5 165.5C440.5 167.257 439.5 169.5 439.5 169.5Z" fill="#062F4D"/>
<path d="M597 210C593.944 211.295 589 214 589 214C589 214 588.009 213.027 587 212.5C585.682 211.811 583.5 211 583.5 211C583.5 211 587.178 208.895 590 207.5C593.218 205.909 597.595 204.136 601 203C604.819 201.726 609 201 609 201C609 201 608.412 202.571 608 204C607.724 204.957 607.5 207 607.5 207C607.5 207 600.754 208.409 597 210Z" fill="#083F67"/>
<path d="M575.5 215C573 216 569 215.5 567 215.5C565.861 215.5 565 217 565 218C565 219 567 220 568 220H575H584H588.5C588.5 220 590.243 217.47 590 216.5C589.5 214.5 587.5 213 587.5 213C587.5 213 585.667 211.833 584.5 211.5C583.333 211.167 577.5 214.2 575.5 215Z" fill="#323B6B"/>
<path d="M664.5 222.5C664.5 222.5 660.167 218 658.5 216.5C658.5 216.5 659.683 214.014 660 212C660.364 209.685 660 205.5 660 205.5C660 205.5 664.493 209.416 667 212C669.612 214.692 670.968 216.347 673 219.5C674.562 221.923 676.5 225.5 676.5 225.5C676.5 225.5 674.523 227.292 673 228C671.711 228.599 669.5 229 669.5 229C668.167 226.667 664.5 222.5 664.5 222.5Z" fill="#083F67"/>
<path d="M397 203.5C397 203.5 407.214 206.814 414 207.5C419.245 208.03 427.5 207.5 427.5 207.5C431.5 207 442 205.5 442 205.5C442 205.5 455.833 204 461.5 203.5C467.167 203 467.833 204.333 467 205.5C466.167 206.667 463.695 208.156 461.5 209C455 211.5 445.5 211.667 441 212.5C436.5 213.333 432.329 213.963 424.5 215C417.873 215.878 414.677 216.177 408 216.5C403.319 216.726 395.5 216 395.5 216" stroke="black" stroke-width="0.2"/>
<path d="M396.5 145.5C396.5 142 400.5 140 400.5 140C400.5 140 404.082 141.17 408 142.5C410.339 143.294 416.5 145.5 416.5 145.5C416.5 145.5 422.997 148.384 426 150C428.862 151.54 431.5 153.5 431.5 153.5V155C431.333 156 430.4 158.9 430 160.5C429.5 162.5 427 166 427 166C427 166 424.5 169.5 421.5 171C421.053 171.224 415.698 172.49 412 172C408.262 171.505 405 170 403 168.5C401 167 397.5 157 397.5 157C397.5 156.2 396.5 149 396.5 145.5Z" stroke="black"/>
<path d="M440 167.5C440.677 165.053 440.5 162.667 440 161C440 161 434.73 156.149 431 153.5C427.287 150.863 425.022 149.637 421 147.5C416.448 145.081 412.611 144.805 408 142.5C405 141 401 140 397 140L393 140L393.5 142L394 147L395.5 161L397 169L397.5 174.5C397.5 174.5 402.543 177.075 406.5 178.5C410.742 180.027 415.494 181.86 420 182C423.369 182.105 428.5 181.5 428.5 181.5C430.667 180.167 435.5 175 435.5 175C435.5 175 439 171.115 440 167.5Z" fill="#006FBF" stroke="black"/>
<path d="M594.5 221C595.333 222.167 596.316 224.313 598 226C601.085 229.09 604.999 230.752 609 232.5C616.526 235.787 625.5 238.5 630 239.5C632.183 239.985 640.605 241.994 649 243.5C653.839 244.368 657.5 244.5 661.5 245" stroke="black" stroke-width="0.4"/>
<path d="M629.5 201C630.5 200 632.937 199.159 635.5 199L635.509 198.999C637.261 198.89 639.261 198.766 641 199C643.448 199.329 646.167 200.167 647 201C647.833 201.833 648.904 202.93 649.5 204.5C650.332 206.69 650.323 208.306 649.5 210.5C648.53 213.085 646.424 214.678 644 216C639.886 218.244 635.5 217.649 632.5 216.5C630.374 215.686 628.5 213.5 627.5 212.5C626.5 211.5 626.373 208.168 627 205.5C627.559 203.118 628.5 202 629.5 201Z" stroke="black"/>
<path d="M583 211.5C583 211.5 585.996 211.5 586.994 212.5C587.993 213.5 589.836 214.553 589.99 216.5C590.069 217.493 589.982 218 589.491 219C589 220 587 220.5 587 220.5" stroke="black"/>
<path d="M568 207.5C574.5 204.333 577.89 203.131 586.5 199.5C595.662 195.636 601.111 190.889 610.5 188C617 186 633 185 639 185C646.28 185 655.205 187.299 663.5 193C669.876 197.382 675.53 200.904 677.5 205.5C679 209 680.5 212.5 683.5 216C686.894 219.96 690.333 223 692 224.5" stroke="black"/>
<path d="M670 169C684.743 169.968 702.5 174.5 705.5 172.5C707.125 171.417 707.5 169 707.5 169V162.5C707.5 160 704.5 152.5 704.5 152.5L700.5 145H688C688 145 674.561 143.857 665 143C655.034 142.106 649.47 139.647 639.5 140.5C634.158 140.957 629 144.5 626 143.5C625.055 143.185 627.277 141.122 626.5 140.5C624 138.5 619 143 616 143C614.2 143 616 140.5 613.5 140C611 139.5 601 145 598 145C596.2 145 600.8 140.5 599 140.5C596.5 140.5 591.828 141.314 590 142C582 145 577.5 146 577.5 146C577.5 146 572.818 148.237 571 150.5C568.354 153.793 567.836 157.993 566.5 162L566.468 162.096C564.885 166.843 564.224 168.827 568.5 171.5C572.5 174 585.5 171.5 585.5 171.5C585.5 171.5 597 169 603 169C609 169 620.284 167.5 632 167.5C646.449 167.5 655.582 168.054 670 169Z" fill="black"/>
<path d="M523 329C523.833 330.167 524.4 334.4 524 336C523.5 338 522.5 340 521.5 341.5C520.7 342.7 516.167 347.667 514 350C514 350 511 354 508.5 356C507.271 356.983 504.571 359.108 503 359C501.595 358.903 500.5 358 500.5 358" stroke="black"/>
<path d="M330.5 206C333.953 206.667 339.806 206.339 344.5 207.5C351.044 209.119 357.139 209 360.592 209C364.045 209 370.303 209 373 209" stroke="black"/>
<path d="M332.5 195.5C336.333 195.5 344.7 195.5 347.5 195.5C351 195.5 363 197.5 365 198C366.6 198.4 371.667 200.833 374 202" stroke="black"/>
<path d="M685 275C686 275.5 686.5 276.5 687.5 277C689.78 278.14 692.606 279.053 693.5 279.5C694.5 280 696.167 280.167 697 280.5" stroke="black"/>
<path d="M674.5 387.5C674.5 387.5 672.117 386.254 671 385C669.953 383.825 669.899 382.793 669 381.5C667.972 380.022 666 378 666 378" stroke="black"/>
<path d="M67.5 637C67.5 637 79.0196 617.958 89 608C101.537 595.492 103.947 595.899 117.5 584.5C135.805 569.105 149.187 556.664 163.5 537.5C175.267 521.746 182.071 510.755 191.5 493.5C201.093 475.944 206.737 465.829 213.5 447C219.52 430.238 219.605 420.623 226 404C230.892 391.284 232.581 382.928 240 371.5C248.211 358.851 251.836 352.664 262.5 342C270.5 334 280.194 325.822 286.5 314.5C290.678 307 296.804 296.065 302 283C307.62 268.869 308.774 260.954 312.5 249.5C316.226 238.046 316.315 232.926 318 221C319.148 212.88 326 198.701 326 190.5C326 179.175 326 173.946 326 164.5C326 160.5 326 143.5 328.5 132.5C330.185 125.084 334.381 116.125 340 111C342.921 108.336 345.647 106.389 349.5 105.5C356 104 362.013 103.91 370 106.5C378.993 109.416 384.365 116.761 389 125C393.5 133 394.188 154.695 396 163C402 190.5 387.997 212.032 385 232C382.003 251.968 379 277.5 379 286C379 294.5 380.098 308.711 389 324C399.532 342.09 420.5 347.5 430.5 353C440.5 358.5 451.87 368.239 466 372.5C477.372 375.929 484.623 375 496.5 375C503.5 375 507.48 374.525 523.5 370.5C529.469 369 544.827 371.534 549 369C563 360.5 570.786 352.6 586 345.5C603.987 337.107 624.112 337.419 635 329.5C640.5 325.5 645 313.5 650.5 307C659.597 296.249 669.61 289.008 680 279.5C681.938 277.727 683.981 277.421 685 275C689 265.5 689 253.5 692.5 243C696.199 231.903 700.508 221.879 707.5 212.5C712.148 206.266 716.107 201.574 722 196.5C728.755 190.683 731.717 188.523 740.5 187C745.117 186.199 748.833 185.045 752 188.5C753.375 190 757 184.5 755 198.5C753.828 206.706 752.367 211.223 749.5 219C747.353 224.823 744.695 225.696 742.5 231.5C738.228 242.795 740.064 252.462 736.5 264C731.353 280.664 727.245 284.873 719.5 300.5C712.971 313.673 707.633 324.935 700 337.5C694.262 346.946 693.517 347.203 689.5 357.5C686.298 365.708 685.332 376.896 679.5 383.5C676.13 387.317 672.002 389.621 667.5 392C659.963 395.982 657.089 396.618 649.5 400.5C643.953 403.337 635.5 405 630 407.5C615.514 414.085 613.176 418.579 600 427.5C591.5 433.255 584.459 440.147 573 448.5C560.484 457.624 550.675 462.099 538 471C530.105 476.544 525.231 481.696 516 484.5C507.779 486.997 492.5 485.5 492.5 485.5L477.5 484.5" stroke="black"/>
<path d="M673.5 388.5C673.5 388.5 670.953 391.438 669 393C667.047 394.562 660.94 399.422 659 401C653.628 405.37 650 407.953 648.5 409C645.479 411.109 641.646 413.583 638.5 415.5C632.523 419.143 633.429 418.28 627.5 422C620.481 426.405 616.936 429.466 610 434C602.879 438.654 598.58 440.784 591.5 445.5C579.539 453.467 573.016 458.617 561 466.5C553.748 471.257 550.149 474.089 543 479C535.66 484.042 532.671 488.477 525 493C520.863 495.439 518.172 497.431 513.5 498.543C503 501.043 495.937 499.548 485 500.5C473.482 501.503 467.501 501.818 456 503C441.906 504.449 434.302 504.8 420.5 508C410.333 510.357 404.89 512.666 395 516C390.494 517.519 387.107 518.324 382.5 519.5C377.897 520.675 373.591 521.276 369 522.5C361.5 524.5 346 533.118 341.5 535.5C336.778 538 332.314 542.151 326.5 547.5C321.216 552.361 318.007 554.854 313 560C309.051 564.058 306.413 566.144 303.5 571C300.5 576 299.405 575.823 295.5 585C291.595 594.177 290.405 597.823 286.5 607C282.595 616.177 282.369 618.693 282 626.5C281.646 634 281.5 635.5 283 640C284.5 644.5 286.352 649.618 288.5 654.5C288.5 654.5 291.419 665.33 293.5 673.5C294.996 679.375 296 686.833 298 690C300 693.167 303 697.5 305 699C307 700.5 314.833 705 320 707.5" stroke="black"/>
<path d="M664.5 393.5C664.5 393.5 662.017 391.986 661 390.5C659.636 388.507 658.833 386.892 658.5 384.5C658.069 381.406 657 375 657 375" stroke="black"/>
<path d="M682 380C682 380 680.833 377.593 680 376.667C679.167 375.741 677.333 374.135 677 373.889C675.5 372.778 673.5 371.296 672 370" stroke="black"/>
<path d="M752 188.5C750.667 190.167 747 198 747 198C747 198 742.974 207.577 742.5 209C741.5 212 739.5 219.928 739 221.5C738.5 223.072 738.5 225.333 738.5 226C738.5 226.667 739.7 228.1 740.5 228.5C741.3 228.9 742.833 229.667 743.5 230" stroke="black"/>
<path d="M634 330C635.167 331.5 637.6 334.7 638 335.5C638.5 336.5 640.5 341.5 641 342.5C641.4 343.3 642.5 344.5 643 345" stroke="black"/>
<path d="M683 277.5C683.5 277.833 684.8 278.7 686 279.5C687.2 280.3 689.833 281.5 691 282" stroke="black"/>
<path d="M341.5 110C341.5 110 340.15 114.232 339.5 117C337.75 124.452 336.5 132 336.5 135C336.5 139.101 336.5 142 337.5 147C338.255 150.776 338.269 151.904 341.5 154C345.432 156.55 347.833 156.423 352.5 156C357.649 155.534 360.62 155.206 365.5 153.5C368.963 152.29 372.5 150.5 375 148C376.977 146.023 377.462 144.096 378.5 141.5C379.5 139 380.119 136.211 380.5 132.5C380.901 128.596 380.708 126.419 380.5 122.5C380.364 119.935 380.044 118.51 379.5 116C379.028 113.824 378 110.5 378 110.5" stroke="black"/>
<path d="M331 219C331 219 338.97 222.988 344.5 224C350.262 225.055 359.5 224 359.5 224L369 222" stroke="black"/>
<path d="M388.5 133.5C386.874 127.096 383 116 383 116C383 116 385.5 118.5 388.5 124C391.5 129.5 393.5 143.5 393.5 143.5C393.5 143.5 395 157 396 162.5C396.909 167.5 398.186 176.506 397 186C395.955 194.365 392.5 206 391 210.5C389.5 215 385.5 227 385 232C384.5 237 381.65 254.758 381 261C380.35 267.242 379.225 273.728 379 280C378.635 290.164 379.167 296.667 380.5 302C381.833 307.333 384.039 314.872 388 322C392.23 329.612 397.5 334.5 399 336C400.5 337.5 406.2 341.228 412.5 344.5C416.351 346.5 429 352.25 431.5 353.5C433.5 354.5 448.5 364.5 452.5 366.5C456.5 368.5 465.5 373 468.5 373.5C471.5 374 477.516 374.702 484 375C489.5 375.252 501.667 375 506.5 374.5C506.5 374.5 518.5 374 520.5 377C521.583 378.625 520.881 380.119 519.5 381.5C517.5 383.5 508 384.5 503 384.5C498 384.5 484 385 480.5 385C476.5 385 461.5 389 461.5 389C461.5 389 447 392.409 442 391.5C436.5 390.5 425.167 386.167 418.5 384C411.833 381.833 402.336 376.882 391.5 370L390.915 369.629C382.163 364.073 378.252 361.59 372 353C366.178 345 360 331.5 359 323.5C358.256 317.546 358.745 302.522 360 289.5C361.513 273.794 363.851 265.079 368.5 250C370.265 244.276 370.637 241.193 372.5 235.5C376 224.803 379 211.5 384 198.5C386.008 193.278 386.66 191.784 388.5 186.5C390.5 180.758 391.5 171.5 391.5 165C391.5 155.5 391.493 145.289 388.5 133.5Z" fill="#3F54C0" stroke="black"/>
<path d="M553.5 310C550.5 312 543.356 319.067 537.466 322.404C530.702 326.235 523.034 329.096 519.5 330.5C515.966 331.904 510.18 336.494 505 341.5C500.169 346.17 495.5 351 495 353C494.5 355 500 356 501 359C501 365 507 369 507 369C507 369 512 371.333 515.5 372.5" stroke="black"/>
<path d="M557 343C557.333 345.167 557 352 557 352C557 352 556.333 359.167 556 361.5L555 365.5" stroke="black"/>
<path d="M591 336L590 344" stroke="black"/>
<path d="M506.5 340.5C506.5 340.5 501.333 337.667 499.5 335C497.667 332.333 496 328 495 324.5C494.011 321.039 494.5 317.667 494.5 315C494.5 312.333 496 310 497.5 309C499 308 504.4 309 508 309C512.5 309 522.379 311.293 524.5 312C529 313.5 530.767 314.482 535 315C537.5 315.306 539.333 316.5 541.5 316.5L544.5 317.5" stroke="black"/>
<path d="M635 234.5C638.333 234.333 646.8 233.4 648 233C649.5 232.5 658.5 232 661 231C663 230.2 667.833 229.333 670 229C672.167 228.667 674.5 227 674.5 227L677 225.5" stroke="black"/>
<path d="M607 211C607.268 207.362 608 202.667 609 200.5L612.5 199.5C612.5 199.5 616.372 198.356 619.5 198C623.399 197.556 627.5 197 630.5 197C633.5 197 640 197.5 643.5 198C644.292 198.113 649.833 199.667 652 200.5C654.167 201.333 658.5 204 659.5 205.5C660.5 207 660.333 212.667 659 215.5C657.667 218.333 656.145 221.126 655 222.5C652.5 225.5 649.942 228.486 646 230.5C642.415 232.332 638 234 636 234C634 234 623.5 231.5 623.5 231.5C623.5 231.5 616.5 228.5 615 228C613.5 227.5 609.671 223.342 609 222C608 220 606.634 215.965 607 211Z" fill="#006FBF" stroke="black"/>
<path d="M667 262C657.167 262 636.3 262 631.5 262C625.5 262 613.406 259.85 602.5 256C591.3 252.046 581 245 578 243.5C575.6 242.3 569.667 237.333 567 235C567 235 564.192 231.63 564.5 230.5C565.63 226.356 577 232 577 232C581 234.667 589 239.2 595 242C602.5 245.5 611.5 247 616.5 248.5C621.5 250 644.5 252.5 644.5 252.5C644.5 252.5 657.833 253.5 662 253.5" stroke="black" stroke-width="0.2"/>
<path d="M454 175.333C454 175.333 451.455 174.313 450.727 175.843C450 177.372 450 178.902 450 180.431C450 181.343 451.455 182.98 451.818 184" stroke="black"/>
<path d="M399 147.5C399.633 144.64 401 142.833 402.5 141C402.5 141 406.907 142.241 409 143C410.808 143.655 411.698 143.828 413.5 144.5C415.41 145.212 416.5 145.5 418.5 146.5C420.5 147.5 422 148 424 149C424.988 149.494 427.5 151.5 427.5 151.5V155.5C427.5 156 427 158.5 426.5 160.5C426 162.5 421.5 166.5 421.5 166.5C421.5 166.5 417.079 168.731 414 168.5C411.212 168.291 408 166 408 166C408 166 404.5 162.5 403.5 161C402.5 159.5 400 155 399.5 153.5C399.5 153.5 398.445 150.008 399 147.5Z" fill="black"/>
<path d="M391 130.5C395 130.5 400.556 129.497 406 130C415.857 130.91 423.5 133 430.5 136.5C437.5 140 439.937 143.569 445.5 147.5C456.383 155.191 466.5 171.5 466.5 171.5" stroke="black"/>
<path d="M673 219.5C674 220 673 220.5 676 220.5C678.4 220.5 680.333 219.833 681 219.5" stroke="black"/>
<path d="M661 206.5C661.667 206 663.1 204.9 663.5 204.5C664.5 203.5 664.667 201.667 665 200.5" stroke="black"/>
<path d="M650 200C651.333 200 653.5 200 655.143 198.667C656.234 197.781 657.429 195.611 658 194.5" stroke="black"/>
<path d="M641.5 197.5C642 197.5 642.5 197.5 644 196.5C645.2 195.7 646 194 646.5 193C647 192 647.5 190 647.5 190" stroke="black"/>
<path d="M621.5 197.5C622 196.5 622 197.5 622.5 195.5C622.9 193.9 622.667 191.833 622.5 191" stroke="black"/>
<path d="M609 200.5C609.5 200.5 610.6 200.1 611 198.5C611.4 196.9 611.5 194.5 611.5 193.5V192.5" stroke="black"/>
<path d="M437 158.5C437 158.5 436.763 155.891 437.5 154.5C438.488 152.633 442 151.5 442 151.5" stroke="black"/>
<path d="M417 146C416.667 145.167 415.753 143.259 415.5 142.5C415 141 415 139.5 415.5 138C416 136.5 417 135 417 135" stroke="black"/>
<path d="M407.5 142.5C407.5 142.5 404.669 140.465 404 138.5C403.434 136.836 404 134 404 134" stroke="black"/>
<path d="M397 140C396 139.167 394.5 137.5 394 136.5C393.204 134.908 393 133.5 393 132.5" stroke="black"/>
<path d="M435.5 175.5C433.306 178.342 428 181.5 428 181.5H434.5C436.667 181.5 440.347 180.851 444 181.5C447.04 182.04 450.5 183.167 452 184C451.5 183 450.396 182.249 450 181C449.583 179.684 449.833 179 450 178L439.5 169.5C439.5 169.5 437.056 173.485 435.5 175.5Z" fill="#D9D9D9"/>
<path d="M355.5 105.5L358.5 62C358.5 62 382.707 62 399.5 62C418.245 62 445 61 445 61L506.5 64C506.5 64 522.127 62.5778 530.5 66C543.086 71.1442 552.694 80.7553 564.5 87.5C577.48 94.9152 585.625 97.4377 599.5 103C615.837 109.549 624.11 113.584 640.5 120C653.13 124.944 661.459 126.335 674 131.5C684.125 135.67 701 144 701 144C701 144 707.586 159.956 711.5 171C715.756 183.01 720.5 201 720.5 201" stroke="black"/>
<path d="M379.5 279C379.5 279 392.245 281.698 402 283.5C415.293 285.956 424.423 287.574 437.5 291C448.013 293.755 454.498 295.704 465 298.5C473.698 300.816 478.626 301.992 487.5 303.5C498.342 305.342 504.517 305.937 515.5 306.5C525.64 307.02 534 309 543 309C552 309 563 312 572.5 314C577.142 314.977 599.5 320.5 599.5 320.5C599.5 320.5 614.667 324.667 624 327.5L635 329.5" stroke="black"/>
<path d="M364 77.5C359.861 81.709 358.667 86.3335 356.5 90.0001C356.5 90.0001 361.531 91.5592 365 93C369.855 95.0167 376.668 96.9289 381.5 99C388.5 102 394.367 106.113 405 111C414.692 115.455 420.435 117.279 430 122C439.796 126.836 440.331 127.509 450.5 131.5C459.89 135.186 464 139 472 141.5C473.677 142.024 482.438 144 484 141.5C485.562 139 484 133.5 483 130C482.429 128 478.333 121 475.5 116.5C472.667 112 473.536 118.854 472 118C467.5 115.5 466.5 105 463 104C461.123 103.464 459.95 108.892 458 109C455.891 109.117 452.5 104 452.5 104C452.5 104 443.5 91.0961 442.5 94.5001C442.005 96.1862 442.167 99.0001 437 96.0001C431.833 93.0001 423.5 87.5001 419 85.0001C413.719 82.0661 405.486 76.9943 398 74.0001C393 72.0001 383.422 68.7156 379.5 69.5C374.5 70.4999 368.33 73.0974 364 77.5Z" fill="black"/>
<path d="M623 201.5C624.346 199.393 626 197.667 627.5 197H630H636C636 197 642.047 197.622 645.5 198.5C648.492 199.261 652 200.5 652 200.5C652 200.5 653.262 202.476 653.5 203.5C653.853 205.022 653.5 207.5 653.5 207.5C653.5 207.5 653.371 210.998 652.5 213C651.503 215.293 650.364 216.333 648.5 218C646.153 220.098 644 221 641.5 221.5C639 222 637.499 222.447 635 222C632.323 221.521 630 220.5 628.5 219.5C627.912 219.108 625.506 217.452 624 214.5C622.902 212.349 621.667 209.5 621.5 208C621.833 206.5 621.597 203.695 623 201.5Z" fill="black"/>
<ellipse cx="640.5" cy="210" rx="4.5" ry="3" fill="#A09797"/>
<ellipse cx="643.769" cy="202.398" rx="3.46701" ry="2.24989" transform="rotate(25.4052 643.769 202.398)" fill="#A09797"/>
<path d="M393 140C393 140 400.167 139 405.5 141.5C410.833 144 422.985 148.091 427 150.5C432 153.5 440.172 160.795 447.5 168C451.64 172.071 456.4 178.3 458 179.5C459.6 180.7 466 186 467.5 188.5C469 191 465 190.5 463 189.5C460.317 188.159 454.5 185.5 454.5 185.5C454.5 185.5 449.417 181.848 442.5 181.5C438.363 181.292 433 181.5 433 181.5C428.667 181.5 422.5 182.5 418 182C416.012 181.779 409.958 180.074 405.5 178C402.099 176.418 397.5 174.5 397.5 174.5" stroke="black"/>
<ellipse cx="410.5" cy="149" rx="4.5" ry="4" fill="#A09797"/>
<ellipse cx="423" cy="152.5" rx="3" ry="2.5" fill="#A09797"/>
<path d="M678 228C678.333 228.994 680.218 231.464 681 231.834C685.5 233.964 687.5 232.686 690 231.834" stroke="black"/>
<path d="M443.5 164C443.167 163.5 443.2 160.8 444 160C444.8 159.2 446 158 447.5 158" stroke="black"/>
<defs>
<linearGradient id="paint0_linear_306_6402" x1="411.989" y1="104" x2="160.5" y2="652" gradientUnits="userSpaceOnUse">
<stop stop-color="#878EDC"/>
<stop offset="0.666995" stop-color="#878EDC" stop-opacity="0.5"/>
<stop offset="1" stop-opacity="0"/>
</linearGradient>
<linearGradient id="paint1_linear_306_6402" x1="503.218" y1="186.174" x2="254" y2="630.5" gradientUnits="userSpaceOnUse">
<stop stop-color="#3F54C0"/>
<stop offset="1" stop-color="#3F54C0" stop-opacity="0"/>
</linearGradient>
</defs>
</svg>
